<?xml version="1.0" encoding="UTF-8"?>
<svg xmlns="http://www.w3.org/2000/svg" viewBox="111.25 441.72 196.55 196.55">
  <g>
    <path fill="#7dc6a2" d="m158.71,586.04c-3-4.29-6.72-11.05-8.58-16.8-5.84-18.07-7.45-46.74,19.85-68.44,11.59-9.21,25.99-14.64,40.63-17.07,20.24-3.36,41.28-.88,61.13-5.76-2.48,5.57-3.01,11.6-2.6,17.23.5,6.95,2.31,13.57,3,20.48,2.08,20.65-6.35,43.7-22.46,61.36-9.37,10.28-21.42,18.85-34.62,23.03-12.35,3.92-35.68,2.59-52.78-10.22"/>
    <path fill="#ace2bf" d="m214.7,534.03c-6.02,7.01-12.31,14.01-18.35,20.54-.7.76-.42,1.9.56,2.16,18.75,5.09,37.13-.18,46.83-5.96-14.46,11.25-35.09,14.99-51.44,9.49-.57-.19-1.23-.02-1.66.43-4.72,5.01-9.15,9.61-13.02,13.55-.71.72-.49,1.84.43,2.17,18.02,6.31,36.42,1.88,46.15-3.42-13.72,9.83-34.94,11.5-50.3,6.26-.55-.19-1.2-.03-1.63.4-2.65,2.65-4.82,4.77-6.35,6.22,0,0-7.6,7.5-12.29,13.97-.54.74-1.63.94-2.27.36-1.28-1.14-2.49-2.36-3.6-3.65-.5-.58-.29-1.47.44-1.93,3.73-2.36,14.35-11.58,14.35-11.58,2.64-2.43,5.27-4.89,7.89-7.38.5-.48.6-1.18.24-1.71-8.84-13.2-8.55-31.39.91-45.4-4.49,9.23-6.84,25.96,2.31,41.4.46.77,1.63.84,2.34.17,4.99-4.82,9.94-9.72,14.83-14.69.43-.44.53-1.05.28-1.55-6.68-13.06-4.4-30.28,5.87-42.98-5.05,8.29-8.99,23.5-2.88,38.38.37.91,1.71,1.05,2.46.28,6.18-6.4,12.25-12.89,18.2-19.45.43-.47.49-1.12.17-1.61-6.05-9.32-5.76-22.25.91-32.45-3.12,6.57-4.78,18.19,1.08,28.87.46.83,1.74.87,2.43.1,6.87-7.7,13.55-15.48,20.01-23.3-5.05,7.93-12.24,17.25-20.2,26.78-.68.82-.3,1.98.74,2.14,14.85,2.37,28.47-2.97,35.4-8.04-10.25,9.68-26.06,14.03-39.25,10.91-.57-.13-1.18.06-1.57.51Z"/>
  </g>
</svg>
