<?xml version="1.0" encoding="UTF-8"?>
<svg id="Layer_1" data-name="Layer 1" xmlns="http://www.w3.org/2000/svg" viewBox="145 470 825 150">
  <defs>
    <style>
      .cls-1 {
        fill: #ace2bf;
      }

      .cls-2, .cls-3 {
        fill: #fff;
      }

      .cls-4 {
        fill: #1f1d2b;
      }

      .cls-5 {
        fill: #7dc6a2;
      }

      .cls-3 {
        font-family: Barlow-Regular, Barlow;
        font-size: 30.11px;
      }
    </style>
  </defs>
  <g>
    <g>
      <g>
        <path class="cls-2" d="m289.41,599.07v-80.38c0-2.26,1.83-4.09,4.09-4.09h16.55v11.75c7.19-8.89,15.88-13.34,26.04-13.34,11,0,18.94,4.45,23.82,13.34,7.41-8.89,15.98-13.34,25.72-13.34,12.91,0,21.38,4.87,25.4,14.61,1.48,3.17,2.22,9,2.22,17.47v53.99h-22.23v-48.27c0-8.68-.74-14.08-2.22-16.2-2.54-3.17-6.03-4.76-10.48-4.76-7.2,0-11.86,3.71-13.97,11.12-1.06,4.24-1.59,10.06-1.59,17.47v40.65h-22.55v-57.48c-.64-5.08-2.22-8.36-4.76-9.84-1.48-1.27-3.71-1.91-6.67-1.91-7.62,0-12.7,3.6-15.24,10.8-1.27,3.39-1.9,9.21-1.9,17.47v40.97h-22.23Z"/>
        <path class="cls-2" d="m460.7,599.07v-84.47h20.64v12.7c6.99-9.53,15.98-14.29,26.99-14.29s18.84,3.07,23.5,9.21c3.81,4.66,5.72,12.81,5.72,24.45v52.4h-22.23v-43.19c0-7.41-.11-11.64-.32-12.7-.85-5.08-2.75-8.78-5.72-11.12-2.12-1.48-4.76-2.22-7.94-2.22-8.47,0-13.97,3.92-16.51,11.75-1.27,3.39-1.9,9.85-1.9,19.37v38.11h-22.23Z"/>
        <path class="cls-2" d="m596.13,595.56c-5.71,2.33-11.65,3.51-17.79,3.51-8.25,0-14.18-2.44-17.79-7.32-1.47-2.11-2.54-4.96-3.17-8.57-.63-3.17-.84-8.47-.63-15.88v-36.84h-10.49v-17.79h10.49v-16.8h22.23v16.8h15.25v17.79h-15.25v41.92c.43,3.83,1.27,6.14,2.54,7,.84.84,2.11,1.27,3.81,1.27,2.13,0,5.09-.75,8.9-2.22l1.9,17.13Z"/>
        <path class="cls-2" d="m715.17,593.98c-14.4-7.62-21.59-20.96-21.59-40.01,0-7.83,1.8-15.13,5.4-21.91,3.81-6.77,9-11.96,15.56-15.56,6.56-3.6,14.08-5.4,22.55-5.4,12.7,0,23.13,4.08,31.28,12.23,8.15,8.15,12.23,18.58,12.23,31.28s-4.02,23.29-12.07,31.76c-8.26,8.47-18.74,12.7-31.44,12.7-8.05,0-15.35-1.69-21.91-5.08Zm37.79-21.28c3.17-4.87,4.76-10.8,4.76-17.78s-1.59-13.12-4.76-17.78c-3.81-5.29-9.11-7.94-15.88-7.94s-12.07,2.65-15.88,7.94c-3.18,4.66-4.76,10.59-4.76,17.78s1.59,12.92,4.76,17.78c3.81,5.51,9.1,8.26,15.88,8.26s12.07-2.75,15.88-8.26Z"/>
        <path class="cls-2" d="m790.11,599.07v-80.38c0-2.26,1.83-4.09,4.09-4.09h16.55v11.75c7.19-8.89,15.88-13.34,26.04-13.34,11,0,18.94,4.45,23.82,13.34,7.41-8.89,15.98-13.34,25.72-13.34,12.91,0,21.38,4.87,25.4,14.61,1.48,3.17,2.22,9,2.22,17.47v49.89c0,2.26-1.83,4.09-4.09,4.09h-18.14v-48.27c0-8.68-.74-14.08-2.22-16.2-2.54-3.17-6.03-4.76-10.48-4.76-7.2,0-11.86,3.71-13.97,11.12-1.06,4.24-1.59,10.06-1.59,17.47v40.65h-22.55v-57.48c-.64-5.08-2.22-8.36-4.76-9.84-1.48-1.27-3.71-1.91-6.67-1.91-7.62,0-12.7,3.6-15.24,10.8-1.27,3.39-1.9,9.21-1.9,17.47v40.97h-22.23Z"/>
        <path class="cls-2" d="m645.08,599.07c-7.19,0-13.39-1.2-18.58-3.6-5.2-2.4-9.54-5.59-13.04-9.59-3.5-4-6.12-8.52-7.87-13.56-1.75-5.04-2.62-10.27-2.62-15.66v-2.85c0-5.59.9-10.96,2.7-16.11,1.8-5.14,4.47-9.72,8.02-13.71,3.55-4,7.94-7.14,13.19-9.44,5.24-2.3,11.26-3.45,18.06-3.45,7.39,0,13.94,1.42,19.63,4.27,5.69,2.85,10.24,6.82,13.64,11.91,2.54,3.82,4.25,8.08,5.11,12.79.46,2.54-1.45,4.89-4.03,4.89h-15.56c-1.78,0-3.41-1.14-3.9-2.85-.72-2.56-2.04-4.78-3.95-6.66-2.6-2.55-6.25-3.82-10.94-3.82-4,0-7.32,1-9.97,3-2.65,2-4.62,4.77-5.92,8.32-1.3,3.55-1.95,7.67-1.95,12.36,0,4.4.6,8.37,1.8,11.91,1.2,3.55,3.12,6.3,5.77,8.24,2.65,1.95,6.12,2.92,10.42,2.92,3.2,0,5.92-.57,8.17-1.72,2.25-1.15,4.02-2.75,5.32-4.79.79-1.24,1.41-2.6,1.87-4.08.55-1.77,2.1-3.04,3.95-3.04h15.57c2.56,0,4.46,2.33,4.03,4.85-.82,4.82-2.55,9.17-5.19,13.06-3.5,5.15-8.14,9.17-13.94,12.06-5.8,2.9-12.39,4.34-19.78,4.34Z"/>
        <g>
          <rect class="cls-2" x="425.7" y="514.59" width="22.55" height="84.47" rx="4.09" ry="4.09"/>
          <circle class="cls-2" cx="436.98" cy="492.2" r="11.27"/>
        </g>
      </g>
      <g>
        <path class="cls-5" d="m176.11,585.77c-2.5-3.57-5.59-9.19-7.14-13.98-4.86-15.03-6.2-38.89,16.52-56.94,9.64-7.66,21.63-12.18,33.8-14.2,16.83-2.8,34.34-.73,50.85-4.79-2.07,4.64-2.51,9.65-2.17,14.33.42,5.79,1.92,11.29,2.5,17.04,1.73,17.18-5.29,36.35-18.69,51.05-7.79,8.55-17.82,15.68-28.8,19.16-10.27,3.26-29.69,2.16-43.91-8.5"/>
        <path class="cls-1" d="m222.69,542.5c-5.01,5.83-10.24,11.66-15.27,17.09-.59.63-.35,1.58.46,1.8,15.6,4.24,30.89-.15,38.96-4.96-12.03,9.36-29.19,12.47-42.79,7.89-.47-.16-1.03-.02-1.38.36-3.93,4.17-7.61,8-10.83,11.28-.59.6-.41,1.53.36,1.8,14.99,5.25,30.3,1.57,38.39-2.84-11.41,8.18-29.07,9.57-41.85,5.21-.46-.16-1-.02-1.36.33-2.21,2.2-4.01,3.96-5.28,5.17,0,0-6.32,6.24-10.23,11.62-.45.62-1.36.78-1.89.3-1.07-.95-2.07-1.96-2.99-3.03-.41-.48-.24-1.22.37-1.61,3.1-1.96,11.94-9.63,11.94-9.63,2.2-2.03,4.39-4.07,6.57-6.14.42-.4.5-.98.2-1.42-7.36-10.98-7.12-26.12.76-37.77-3.74,7.68-5.69,21.6,1.92,34.44.38.64,1.36.7,1.94.14,4.15-4.01,8.27-8.09,12.34-12.22.36-.36.44-.87.23-1.29-5.56-10.87-3.66-25.19,4.88-35.76-4.2,6.89-7.48,19.55-2.4,31.93.31.76,1.42.87,2.05.23,5.14-5.32,10.19-10.73,15.14-16.18.36-.39.41-.93.14-1.34-5.04-7.75-4.79-18.51.76-27-2.59,5.46-3.98,15.13.9,24.02.38.69,1.45.72,2.02.08,5.71-6.41,11.27-12.88,16.65-19.38-4.2,6.6-10.18,14.35-16.81,22.28-.57.68-.25,1.65.61,1.78,12.35,1.97,23.69-2.47,29.45-6.69-8.53,8.05-21.68,11.67-32.65,9.08-.47-.11-.98.05-1.31.42Z"/>
      </g>
    </g>
    <path class="cls-2" d="m945.3,507.43v13.41h-1.36v-10.71l-4.78,10.71h-.99l-4.78-10.67v10.67h-1.36v-13.41h1.44l5.19,11.62,5.19-11.62h1.46Zm-15.42-.17v1.13h-3.77v12.46h-1.36v-12.46h-3.79v-1.13h8.92Z"/>
  </g>
  
</svg>