<?xml version="1.0" encoding="UTF-8"?>
<svg version="1.1" xmlns="http://www.w3.org/2000/svg" width="215" height="149">
<path d="M0 0 C10.71105331 3.16055934 21.27874154 5.6655154 32.328125 7.31640625 C32.328125 10.85554727 31.66649876 11.451708 29.578125 14.19140625 C23.9734433 22.46060876 22.41297781 31.68904243 20.62817383 41.34277344 C15.49736367 68.86796462 2.72507873 90.01493252 -20.390625 106.453125 C-31.62423186 114.13508097 -43.55350409 119.72357279 -56.671875 123.31640625 C-57.55488281 123.56132812 -58.43789062 123.80625 -59.34765625 124.05859375 C-79.24373117 128.57620952 -98.26765177 124.44404715 -115.671875 114.31640625 C-118.84005053 112.15414996 -121.76610696 109.81617875 -124.671875 107.31640625 C-125.30738281 106.81238281 -125.94289062 106.30835937 -126.59765625 105.7890625 C-130.79527451 102.40040708 -133.7000718 98.81913837 -136.671875 94.31640625 C-143.62252819 96.31913683 -149.48998105 99.27595849 -155.75390625 102.890625 C-158.671875 104.31640625 -158.671875 104.31640625 -162.671875 104.31640625 C-163.661875 101.01640625 -164.651875 97.71640625 -165.671875 94.31640625 C-160.64643457 92.07043615 -155.61942221 90.24250739 -150.359375 88.62890625 C-149.28719727 88.29149414 -149.28719727 88.29149414 -148.19335938 87.94726562 C-142.93396182 86.31640625 -142.93396182 86.31640625 -140.671875 86.31640625 C-140.98125 85.14078125 -141.290625 83.96515625 -141.609375 82.75390625 C-146.06246062 62.25049043 -142.94827128 41.06347425 -132.39453125 22.87109375 C-129.27299515 18.24187695 -125.60555276 14.26326216 -121.671875 10.31640625 C-120.99511719 9.61644531 -120.31835938 8.91648437 -119.62109375 8.1953125 C-86.88915513 -23.42706888 -38.36989567 -11.40161045 0 0 Z " fill="#58B668" transform="translate(173.671875,17.68359375)"/>
<path d="M0 0 C0 3.68147682 -1.23523492 4.47497 -3.5625 7.1328125 C-9.72337876 15.13525828 -12.18955742 24.52210952 -12.625 34.4375 C-12.66367188 35.16904297 -12.70234375 35.90058594 -12.7421875 36.65429688 C-12.83533984 38.43583532 -12.91870286 40.21788122 -13 42 C-1.62539328 36.41312444 9.67952269 30.85024219 20.515625 24.265625 C21.33546875 23.84796875 22.1553125 23.4303125 23 23 C23.66 23.33 24.32 23.66 25 24 C14.78804354 30.79904834 4.43308044 37.17448683 -6.30541992 43.11425781 C-7.16369385 43.5934668 -8.02196777 44.07267578 -8.90625 44.56640625 C-9.67259766 44.98865479 -10.43894531 45.41090332 -11.22851562 45.84594727 C-13.15467502 46.88825402 -13.15467502 46.88825402 -14 49 C-13.28714844 49.26941406 -12.57429688 49.53882813 -11.83984375 49.81640625 C-8.95591209 51.01837502 -6.30469914 52.44279229 -3.5625 53.9375 C6.35193461 58.93125699 17.01697239 60.34998408 28 61 C21.30388555 65.4640763 9.85812403 63.69930981 2.20703125 62.3125 C-4.05448281 60.51708378 -9.39025449 57.91583814 -14.78125 54.26953125 C-17.40415022 52.76875207 -18.96628708 52.22303248 -22 52 C-24.64689726 53.02339811 -26.99420503 54.08847491 -29.48828125 55.40234375 C-30.19147995 55.75889542 -30.89467865 56.11544708 -31.6191864 56.48280334 C-33.85722028 57.62136647 -36.08471506 58.77903261 -38.3125 59.9375 C-39.83072523 60.7141723 -41.34959905 61.48957814 -42.86914062 62.26367188 C-46.58710485 64.16118339 -50.29573849 66.07588501 -54 68 C-54.23026621 70.14256053 -54.23026621 70.14256053 -52.41015625 71.6640625 C-35.45850648 85.82334401 -16.49100724 89.34188045 5 90 C-5.16862181 95.64923434 -19.69090757 93.69335025 -30.55859375 91.03515625 C-41.1207329 87.85812234 -53.34952153 83.13663171 -60.42578125 74.19921875 C-62.03058799 72.71328611 -62.03058799 72.71328611 -64.71484375 73.1015625 C-68.53768407 74.14704796 -72.01052863 75.65067288 -75.5625 77.375 C-76.20896484 77.67921875 -76.85542969 77.9834375 -77.52148438 78.296875 C-81.13754716 80.01845932 -84.6052124 81.87581428 -88 84 C-86.35559213 85.69423841 -84.69072166 87.35274162 -83 89 C-82.55011719 89.45761719 -82.10023437 89.91523437 -81.63671875 90.38671875 C-67.83152008 103.40712576 -49.35346163 107.52328671 -31 108 C-38.39212827 112.48551473 -48.8792978 110.39901609 -56.875 108.5 C-70.5332941 104.94562435 -83.63116239 97.75809404 -93.98046875 88.1640625 C-95.96356741 86.7280442 -95.96356741 86.7280442 -98.34765625 87.44921875 C-99.24355469 87.85785156 -100.13945313 88.26648438 -101.0625 88.6875 C-102.10792969 89.16058594 -103.15335938 89.63367188 -104.23046875 90.12109375 C-109.67867403 92.78177576 -115.02253019 95.66839036 -120.32446289 98.6081543 C-124.56776788 100.91872558 -128.09246772 102.58972399 -133 103 C-133.99 99.7 -134.98 96.4 -136 93 C-129.53060661 90.00038301 -122.81745774 87.99725881 -116 85.9375 C-114.27523437 85.4105957 -114.27523437 85.4105957 -112.515625 84.87304688 C-107.02381397 83.19956298 -101.52779042 81.55067377 -96 80 C-96.01571045 79.42668945 -96.0314209 78.85337891 -96.04760742 78.26269531 C-96.50276965 59.11131245 -94.69500567 42.37810636 -81.375 27.4375 C-79.93356703 25.94185929 -78.47704609 24.46048108 -77 23 C-76.16662109 22.14728516 -76.16662109 22.14728516 -75.31640625 21.27734375 C-74.22672837 20.16914443 -73.11684358 19.08081637 -72 18 C-71.34 18.33 -70.68 18.66 -70 19 C-70.4846875 19.45246094 -70.969375 19.90492187 -71.46875 20.37109375 C-76.26395069 25.2492883 -79.46944251 30.30782878 -82.375 36.4375 C-82.87483398 37.4737854 -82.87483398 37.4737854 -83.38476562 38.53100586 C-87.48676938 47.54467479 -88.3041285 56.31426997 -88.125 66.125 C-88.11597656 67.08148438 -88.10695312 68.03796875 -88.09765625 69.0234375 C-88.07439827 71.34923525 -88.04172213 73.67447294 -88 76 C-87.22285645 75.66677734 -86.44571289 75.33355469 -85.64501953 74.99023438 C-82.76505255 73.75737918 -79.88373827 72.5277452 -77.00146484 71.30029297 C-75.75351727 70.76805615 -74.5061174 70.23453322 -73.25927734 69.69970703 C-71.46856372 68.93185131 -69.67571657 68.16897715 -67.8828125 67.40625 C-66.80402832 66.94541016 -65.72524414 66.48457031 -64.61376953 66.00976562 C-62 65 -62 65 -60 65 C-60.04640625 64.29617187 -60.0928125 63.59234375 -60.140625 62.8671875 C-60.72569128 46.86144581 -54.73553201 31.80089014 -44 20 C-40.75714702 16.88989539 -37.42134769 13.91193174 -34 11 C-33.01 11.495 -33.01 11.495 -32 12 C-32.4125 12.35449219 -32.825 12.70898438 -33.25 13.07421875 C-47.39921731 26.11802845 -51.12691346 42.69495857 -53 61 C-49.12169668 59.20468756 -45.24395073 57.40817816 -41.36669922 55.6105957 C-40.04979159 55.00024663 -38.73273672 54.39021516 -37.41552734 53.78051758 C-35.51360145 52.90010298 -33.61222196 52.01851754 -31.7109375 51.13671875 C-30.56931152 50.60780029 -29.42768555 50.07888184 -28.25146484 49.53393555 C-27.17848145 49.02773682 -26.10549805 48.52153809 -25 48 C-23.8852832 47.51055908 -22.77056641 47.02111816 -21.62207031 46.5168457 C-20.75678711 46.01628662 -19.89150391 45.51572754 -19 45 C-18.46410854 42.25119204 -18.30541919 40.24065796 -18.375 37.5 C-18.1169173 24.22589691 -13.03554011 12.8354193 -3.625 3.375 C-2.4265935 2.23943129 -1.2218978 1.11025232 0 0 Z " fill="#428B4B" transform="translate(144,19)"/>
<path d="M0 0 C0.66 0.33 1.32 0.66 2 1 C-2.95 4.3 -7.9 7.6 -13 11 C-13.33 10.34 -13.66 9.68 -14 9 C-11.50175511 6.18841591 -8.721524 4.55162169 -5.4375 2.75 C-4.46683594 2.20859375 -3.49617187 1.6671875 -2.49609375 1.109375 C-1.67238281 0.74328125 -0.84867188 0.3771875 0 0 Z " fill="#469350" transform="translate(167,42)"/>
<path d="M0 0 C0.66 0.33 1.32 0.66 2 1 C-0.31 3.64 -2.62 6.28 -5 9 C-5.66 8.34 -6.32 7.68 -7 7 C-4.69 4.69 -2.38 2.38 0 0 Z " fill="#469350" transform="translate(72,37)"/>
</svg>
