<?xml version="1.0" encoding="UTF-8"?>
<svg version="1.1" xmlns="http://www.w3.org/2000/svg" width="1975" height="475">
<path d="M0 0 C1.45666077 0.00273422 1.45666077 0.00273422 2.94274902 0.00552368 C17.6516801 0.05197899 32.00915631 0.59513542 46.5 3.3125 C47.45036133 3.48410645 48.40072266 3.65571289 49.37988281 3.83251953 C73.14774795 8.20258872 96.18084998 15.17320315 119.25 22.25 C163.20887011 35.74789823 163.20887011 35.74789823 208.5 43.3125 C208.5 47.12734573 207.50275417 47.70365351 205 50.5 C189.10355753 69.85708393 185.51097016 95.41489146 181.25 119.29296875 C173.97851949 159.94612075 158.87389609 195.3918209 130.5625 226.0625 C128.74942906 228.04039558 127.02960986 230.06446817 125.3125 232.125 C90.92960814 271.30733443 37.57716913 297.06048109 -13.5 304.3125 C-14.139375 304.4060376 -14.77875 304.4995752 -15.4375 304.59594727 C-34.36688729 307.06200605 -55.17183187 306.81095044 -73.5 301.3125 C-74.221875 301.10882813 -74.94375 300.90515625 -75.6875 300.6953125 C-112.92442081 290.07492311 -147.50509664 266.24058552 -169.5 234.3125 C-175.28166382 235.29009159 -180.20217333 237.68947251 -185.5 240.125 C-186.55493652 240.60622314 -187.60987305 241.08744629 -188.69677734 241.58325195 C-197.0000293 245.44547513 -204.93020633 249.79475372 -212.72265625 254.6027832 C-217.13832862 257.26410894 -220.15632541 259.04747142 -225.5 258.3125 C-233.57793118 243.27083505 -233.57793118 243.27083505 -231.5 235.3125 C-224.24407319 232.8324319 -216.92320672 230.64628787 -209.5625 228.5 C-198.78996061 225.33752749 -188.11246344 221.97484032 -177.5 218.3125 C-177.89832031 216.38664062 -177.89832031 216.38664062 -178.3046875 214.421875 C-187.93429053 166.6879874 -183.52328276 116.33414954 -156.375 74.625 C-155.1077156 72.83663658 -153.81726171 71.06437758 -152.5 69.3125 C-151.87738281 68.48105469 -151.25476563 67.64960937 -150.61328125 66.79296875 C-133.9812128 45.3703248 -114.09341612 29.67782997 -89.5 18.3125 C-87.79070312 17.51199219 -87.79070312 17.51199219 -86.046875 16.6953125 C-73.45585423 11.04399388 -60.29816599 6.95735066 -46.8125 4.0625 C-46.11423096 3.91151855 -45.41596191 3.76053711 -44.6965332 3.60498047 C-29.79687577 0.59758574 -15.15112479 -0.05901482 0 0 Z " fill="#58B668" transform="translate(287.5,56.6875)"/>
<path d="M0 0 C1.44349571 -0.00574036 1.44349571 -0.00574036 2.91615295 -0.01159668 C4.95623823 -0.01431846 6.99635825 -0.00693872 9.03637695 0.00976562 C12.1181721 0.03096125 15.19757936 0.01008276 18.27929688 -0.015625 C36.99471688 -0.04344862 51.06026821 3.54922044 65.2578125 16.52734375 C116.13833845 68.41941097 125.24907734 157.87200511 136.34228516 226.23925781 C136.61983894 227.942127 136.61983894 227.942127 136.90299988 229.67939758 C137.25209884 231.82522654 137.59834581 233.97152196 137.94136047 236.11833191 C138.09598251 237.06855728 138.25060455 238.01878265 138.40991211 238.99780273 C138.61021278 240.2446006 138.61021278 240.2446006 138.81455994 241.5165863 C139.1434304 243.59008181 139.1434304 243.59008181 140.22265625 245.53125 C140.50592301 243.76703925 140.50592301 243.76703925 140.79491234 241.96718788 C145.28156783 214.02444325 149.77020481 186.08201742 154.26126959 158.13998113 C154.81449375 154.69797804 155.36770124 151.25597227 155.92089844 147.81396484 C156.03102656 147.12874655 156.14115469 146.44352826 156.25462003 145.73754577 C158.0358632 134.65437967 159.81575778 123.5709974 161.59515075 112.48753412 C163.42210204 101.10803278 165.25053856 89.72877092 167.08025992 78.34971464 C168.1074723 71.96117145 169.13401468 65.57252224 170.15894699 59.18361282 C171.12417145 53.16702781 172.09119653 47.15073495 173.05958748 41.13465881 C173.41418061 38.92976345 173.76812273 36.72476328 174.12135506 34.51964951 C174.60495819 31.50130627 175.09093613 28.48335435 175.57748413 25.46548462 C175.71562353 24.59969493 175.85376294 23.73390523 175.99608839 22.84187949 C176.68623437 18.57693898 177.41535396 14.31902469 178.20047951 10.07051659 C178.34805627 9.26176154 178.49563304 8.45300648 178.64768183 7.6197437 C179.44489496 4.72400689 180.81068876 3.26485164 183.22265625 1.53125 C185.963711 0.16072263 188.17720903 0.38127748 191.24536133 0.35424805 C192.51039993 0.34141281 193.77543854 0.32857758 195.07881165 0.31535339 C196.46659962 0.30718578 197.85439202 0.29974209 199.2421875 0.29296875 C200.28920114 0.28685546 200.28920114 0.28685546 201.35736656 0.28061867 C205.05245035 0.25975778 208.74749701 0.24545666 212.44262695 0.23608398 C216.2559923 0.22502428 220.06877334 0.19063047 223.88193226 0.15091228 C226.81679862 0.12474309 229.75152588 0.1163919 232.68649864 0.11280251 C234.09190501 0.1079366 235.49730516 0.09632229 236.90259743 0.07776451 C238.87217745 0.05337349 240.84204172 0.05675785 242.81176758 0.0612793 C244.49149406 0.05247993 244.49149406 0.05247993 246.20515442 0.04350281 C249.90508941 0.64155809 251.55839649 1.94856706 254.22265625 4.53125 C256.12739591 8.34072932 255.04650007 12.48193281 254.22265625 16.53125 C253.09158534 19.80218479 251.90334077 23.0132476 250.57006836 26.20556641 C245.47150415 38.72211705 244.777421 50.84282612 244.80273438 64.14697266 C244.79537962 65.9899649 244.78678934 67.83295255 244.77706909 69.67593384 C244.75498798 74.64739693 244.7519158 79.61869361 244.7538166 84.59019899 C244.75393697 88.75945587 244.74534561 92.92867834 244.73703909 97.09792554 C244.71785172 106.9469806 244.71490352 116.79595092 244.72167969 126.64501953 C244.72831097 136.7589622 244.70548196 146.87253929 244.66836596 156.98640788 C244.63753114 165.70963355 244.62632396 174.43274249 244.63020277 183.15602148 C244.63225675 188.34829388 244.62700277 193.54028187 244.60231018 198.73250198 C244.57981758 203.62311048 244.58210509 208.51313099 244.6022377 213.40374374 C244.60560879 215.18249227 244.60073071 216.96128216 244.58625412 218.73997498 C244.47110205 233.95759717 247.23897112 247.65785436 253.09765625 261.71875 C255.21021237 266.95682292 255.90369904 270.09258214 254.22265625 275.53125 C251.83816799 278.7379756 250.07106442 279.81755147 246.22265625 280.53125 C244.33009029 280.62701374 242.43452433 280.66931478 240.53955078 280.67651367 C238.82724777 280.68608345 238.82724777 280.68608345 237.08035278 280.69584656 C235.85114105 280.69695938 234.62192932 280.6980722 233.35546875 280.69921875 C232.08798798 280.70254715 230.8205072 280.70587555 229.51461792 280.70930481 C226.83311452 280.71436814 224.15171247 280.71714585 221.47021484 280.71655273 C218.0450505 280.71645121 214.62009388 280.73009852 211.19497871 280.74732494 C207.91514995 280.76116085 204.63532273 280.7605348 201.35546875 280.76171875 C200.13030548 280.76890427 198.90514221 280.77608978 197.64285278 280.78349304 C196.49501312 280.78041641 195.34717346 280.77733978 194.16455078 280.77416992 C193.1595755 280.77559494 192.15460022 280.77701996 191.11917114 280.77848816 C187.20545562 280.44442469 183.71367416 279.5081238 180.41015625 277.34375 C178.55526364 274.51259812 178.13965704 271.85085605 178.22265625 268.53125 C179.1951163 264.46517228 180.60500647 260.58129727 182.03515625 256.65625 C188.0280547 239.81756501 189.37631664 224.64959799 189.33618164 206.85083008 C189.3358991 205.0856832 189.3360588 203.32053621 189.33662415 201.5553894 C189.33690952 196.79378552 189.33105496 192.03220713 189.32405019 187.27060914 C189.31777322 182.2831652 189.31720943 177.29572059 189.31602478 172.30827332 C189.31292423 162.87736196 189.30472811 153.44646227 189.29467529 144.01555604 C189.28347443 133.27306436 189.27799371 122.53057211 189.27297986 111.78807604 C189.26254437 89.70246086 189.24496975 67.61685617 189.22265625 45.53125 C188.56265625 45.53125 187.90265625 45.53125 187.22265625 45.53125 C187.184064 46.25463656 187.14547174 46.97802313 187.10571003 47.7233305 C186.47056483 57.62252782 184.94530133 67.29005139 183.3269043 77.06762695 C183.02736376 78.90242504 182.7283052 80.73730186 182.4296875 82.57225037 C181.62242197 87.52415905 180.80844282 92.47494262 179.99318671 97.42554116 C179.13565979 102.64000408 178.28434916 107.85548185 177.43232727 113.07084656 C175.81594964 122.95902005 174.19394872 132.84626254 172.5699442 142.73318595 C170.7366622 153.89603875 168.90999745 165.05997112 167.08375108 176.22397673 C164.85039548 189.87539545 162.61513121 203.52650187 160.37663269 217.17707825 C160.21864037 218.14076421 160.06064806 219.10445017 159.8978681 220.09733874 C159.13939662 224.72172825 158.37925497 229.34583137 157.6153059 233.96931934 C157.3318053 235.68596739 157.04836317 237.40262509 156.76498413 239.11929321 C156.63012385 239.93624442 156.49526358 240.75319563 156.35631663 241.59490293 C155.54594057 246.51992838 154.76197079 251.44818401 153.99697876 256.38046265 C153.81827901 257.51265071 153.63957926 258.64483877 153.45546436 259.81133556 C153.14297906 261.79746082 152.83847584 263.78487077 152.5446806 265.77384663 C151.82791791 270.28133052 151.11353045 273.84491779 148.22265625 277.53125 C142.32816246 281.06023475 136.73806245 280.96982659 129.99609375 280.9296875 C128.93025055 280.93255768 127.86440735 280.93542786 126.76626587 280.93838501 C124.52223171 280.94041934 122.27817956 280.93493381 120.03417969 280.92236328 C116.60181097 280.90626948 113.1706141 280.92225041 109.73828125 280.94140625 C107.55338282 280.93942433 105.36848512 280.93558171 103.18359375 280.9296875 C101.64751968 280.93879654 101.64751968 280.93879654 100.08041382 280.9480896 C90.94918816 280.85795893 90.94918816 280.85795893 87.22265625 277.53125 C80.34195746 268.28394144 79.42550978 253.82036009 77.81500244 242.65090942 C77.45819887 240.18117856 77.08961577 237.71343284 76.71826172 235.24584961 C76.17259475 231.61667809 75.63026366 227.98703545 75.09082031 224.35693359 C67.9570169 138.02201636 67.9570169 138.02201636 32.703125 63.28515625 C30.27265682 61.38707752 30.27265682 61.38707752 27.22265625 60.53125 C27.28327728 82.75009859 27.36083822 104.96883116 27.45837116 127.18754959 C27.50326931 137.50490546 27.54269772 147.82222727 27.5690918 158.13964844 C27.59212037 167.13600365 27.6255725 176.13225055 27.67135781 185.12851977 C27.6952246 189.88862619 27.71399617 194.64862577 27.72027016 199.40879059 C27.72635073 203.8969551 27.74645701 208.38484647 27.77693176 212.87290955 C27.78566461 214.51265816 27.78944452 216.15244254 27.78766441 217.79221344 C27.7760803 233.39861019 29.53100845 246.81532385 41.01953125 258.3359375 C43.71000047 260.79152448 46.45235136 263.16678595 49.22265625 265.53125 C51.86153267 267.86206376 52.17675807 268.35093574 53.09765625 271.96875 C53.22265625 275.53125 53.22265625 275.53125 51.97265625 277.90625 C48.90170458 280.75784797 45.90861517 280.66382208 41.91259766 280.69238281 C40.82782135 280.70199036 39.74304504 280.7115979 38.62539673 280.72149658 C37.453508 280.72574646 36.28161926 280.72999634 35.07421875 280.734375 C33.86953949 280.74007507 32.66486023 280.74577515 31.42367554 280.75164795 C28.87327961 280.76110005 26.32287147 280.76763276 23.77246094 280.77148438 C19.87022627 280.78119384 15.96851735 280.81221779 12.06640625 280.84375 C9.58984688 280.85027965 7.11328374 280.85553027 4.63671875 280.859375 C3.46887848 280.8717218 2.30103821 280.8840686 1.09780884 280.89678955 C0.00672821 280.89378845 -1.08435242 280.89078735 -2.20849609 280.88769531 C-3.16541351 280.89134094 -4.12233093 280.89498657 -5.10824585 280.89874268 C-8.58597161 280.4199147 -11.27951968 279.02907407 -13.77734375 276.53125 C-14.20549899 271.82154233 -13.7505551 269.22523986 -10.77734375 265.53125 C-8.5782667 263.74180495 -6.31875133 262.04614793 -4.0546875 260.33984375 C4.47615534 253.56492054 9.154533 244.1230089 11.22265625 233.53125 C11.3998794 230.84410328 11.49798389 228.26447938 11.48335266 225.58195496 C11.48717821 224.82334004 11.49100376 224.06472513 11.49494523 223.28312188 C11.50519239 220.76313854 11.50129897 218.24338659 11.49731445 215.72338867 C11.50166556 213.90756522 11.50685004 212.0917436 11.51280212 210.27592468 C11.52616154 205.3584405 11.52677411 200.44103332 11.52423882 195.52353454 C11.52316687 191.41094546 11.5280583 187.29837183 11.53284425 183.18578607 C11.54392922 173.4785819 11.54438275 163.77141642 11.53833008 154.06420898 C11.5322927 144.06788677 11.54459765 134.0717054 11.56590015 124.07540721 C11.58354579 115.47725919 11.58951277 106.87915587 11.5862624 98.28099042 C11.58445387 93.15268803 11.58704261 88.02448609 11.60097694 82.89620018 C11.61359866 78.07064483 11.61157023 73.24530812 11.59856606 68.41975594 C11.59621003 66.65539347 11.59889978 64.89101541 11.60718918 63.12667084 C11.67492854 47.57967268 9.74390821 34.28640926 -0.95703125 22.296875 C-3.99727462 19.34796941 -7.33546494 16.79270936 -10.703125 14.23046875 C-13.39200819 12.02771134 -13.71351664 11.11845945 -14.08984375 7.65625 C-13.77734375 4.53125 -13.77734375 4.53125 -12.36889648 2.36914062 C-8.42162001 -0.43020909 -4.72898253 -0.04148932 0 0 Z " fill="#7DC6A2" transform="translate(1167.77734375,57.46875)"/>
<path d="M0 0 C2.51496271 1.94732222 4.88672691 3.98011399 7.2421875 6.1171875 C8.06203125 6.84421875 8.881875 7.57125 9.7265625 8.3203125 C28.99238084 26.38949616 39.73586982 53.97071823 40.578125 80.1484375 C40.94056896 110.12773046 35.83813697 140.73176234 14.18432617 163.1640625 C12.87545141 164.48690776 11.55907555 165.80231922 10.2421875 167.1171875 C9.64921875 167.78105469 9.05625 168.44492188 8.4453125 169.12890625 C-0.8304467 179.34601725 -16.29220303 187.34635097 -30.15454102 188.27832031 C-50.17436909 188.61700532 -65.87119518 186.10517018 -81.7578125 173.1171875 C-81.8346853 180.10564013 -81.8867528 187.09398139 -81.92260742 194.08276367 C-81.93757488 196.45389887 -81.9579561 198.82500696 -81.98413086 201.19604492 C-82.17835846 219.2592122 -81.09098186 234.55420215 -74.09960938 251.39257812 C-72.05188997 256.56645338 -71.22161105 260.53828257 -71.7578125 266.1171875 C-74.45231364 269.63500843 -76.43837821 271.36044954 -80.7578125 272.1171875 C-82.63957931 272.22252494 -84.5245587 272.27558759 -86.40917969 272.29418945 C-87.54425964 272.30702469 -88.6793396 272.31985992 -89.84881592 272.33308411 C-91.68322235 272.34416451 -91.68322235 272.34416451 -93.5546875 272.35546875 C-94.81742493 272.3635405 -96.08016235 272.37161224 -97.38116455 272.37992859 C-100.05427712 272.3937593 -102.72726682 272.40477844 -105.40039062 272.41235352 C-108.80763218 272.42339822 -112.21421714 272.45778624 -115.62122726 272.49752522 C-118.89064812 272.53011712 -122.16012898 272.53448068 -125.4296875 272.54296875 C-126.6445282 272.56047684 -127.8593689 272.57798492 -129.11102295 272.59602356 C-136.1235563 272.57814794 -140.82605458 271.97139519 -146.7578125 268.1171875 C-148.5578914 264.5170297 -148.31338907 260.99583887 -147.7578125 257.1171875 C-146.89618767 254.63896363 -145.99237707 252.23205961 -145.0078125 249.8046875 C-136.50950112 228.22910674 -137.17146863 206.52068732 -137.25344205 183.70576692 C-137.2674647 178.82375557 -137.26081341 173.94176247 -137.25730896 169.05973816 C-137.25462103 160.870575 -137.26796214 152.68155961 -137.29125977 144.49243164 C-137.31788718 135.06854104 -137.31960272 125.64489678 -137.3078714 116.22098142 C-137.29703847 107.09386518 -137.30332203 97.96683672 -137.31742668 88.8397274 C-137.32313618 84.98251927 -137.32314406 81.12537645 -137.31836128 77.2681675 C-137.31353756 72.71654245 -137.32391272 68.16518223 -137.34531593 63.61360741 C-137.35081039 61.95819364 -137.35141814 60.30275403 -137.34636307 58.64733887 C-137.30224125 42.10648255 -139.11983896 25.54692604 -146.5078125 10.4921875 C-148.13739707 6.09230915 -148.88512135 1.73025398 -147.7578125 -2.8828125 C-145.23472809 -5.96230543 -143.71957731 -7.68078845 -139.76722717 -8.51100159 C-138.65947433 -8.51196335 -137.5517215 -8.51292511 -136.41040039 -8.51391602 C-135.14881607 -8.52644913 -133.88723175 -8.53898224 -132.5874176 -8.55189514 C-131.21842414 -8.53962506 -129.84944056 -8.52620477 -128.48046875 -8.51171875 C-127.06709104 -8.51254811 -125.65371343 -8.51501001 -124.24034119 -8.51902771 C-121.28208282 -8.52188191 -118.32458315 -8.50722528 -115.36645508 -8.47973633 C-111.58561581 -8.44568387 -107.80613532 -8.45166405 -104.02523136 -8.4703989 C-101.10738422 -8.4809992 -98.18984989 -8.47200343 -95.27203178 -8.45701408 C-93.87866585 -8.45185181 -92.48526698 -8.45229025 -91.09190559 -8.45855904 C-78.14505327 -8.49494013 -78.14505327 -8.49494013 -72.7578125 -3.8828125 C-70.21269646 -4.38579525 -70.21269646 -4.38579525 -67.7578125 -5.8828125 C-65.42860868 -6.74817642 -63.09495503 -7.6016242 -60.7578125 -8.4453125 C-59.5615625 -8.87972656 -58.3653125 -9.31414063 -57.1328125 -9.76171875 C-37.79923086 -16.18386913 -16.46306421 -11.23965573 0 0 Z M-75.7578125 19.1171875 C-82.16464435 28.9587931 -83.04582369 39.83593818 -83.12768555 51.32080078 C-83.14243423 52.3808432 -83.15718292 53.44088562 -83.17237854 54.53305054 C-83.21649408 58.00119157 -83.24501375 61.46916764 -83.26953125 64.9375 C-83.27893045 66.1297607 -83.28832966 67.32202141 -83.29801369 68.55041122 C-83.34538133 74.85016006 -83.3791526 81.14982798 -83.40307617 87.44970703 C-83.43088113 93.94099245 -83.51020835 100.43061079 -83.60061932 106.92128181 C-83.66045362 111.93141113 -83.68034346 116.941141 -83.68958473 121.95159531 C-83.7011469 124.34461544 -83.72794029 126.73761401 -83.77051353 129.13028336 C-84.69047399 143.61607222 -84.69047399 143.61607222 -78.53051758 155.96435547 C-76.25759538 157.76287502 -76.25759538 157.76287502 -73.7578125 159.1171875 C-72.8328447 159.65401154 -71.90787689 160.19083557 -70.95487976 160.743927 C-63.36253733 164.8985333 -56.24120785 166.20774014 -47.64453125 164.76171875 C-40.03591289 162.48980665 -34.83076038 156.47144569 -30.7734375 149.90625 C-24.49519105 137.96684969 -21.35073254 125.46418067 -19.7578125 112.1171875 C-19.64566406 111.23546875 -19.53351563 110.35375 -19.41796875 109.4453125 C-16.4479272 81.29094604 -16.50244274 43.76590044 -34.92578125 20.36328125 C-41.04604055 13.80059357 -46.27162687 11.07729113 -55.1953125 10.7421875 C-62.96734597 10.98977305 -70.60764336 12.87410456 -75.7578125 19.1171875 Z " fill="#7DC6A2" transform="translate(712.7578125,65.8828125)"/>
<path d="M0 0 C4.64899419 4.25453408 7.75582242 9.34634953 10.8125 14.8125 C11.41578125 15.87404297 11.41578125 15.87404297 12.03125 16.95703125 C19.58771245 31.92684132 18.84366324 51.25630016 19.875 67.5625 C20.04668718 70.16231687 20.2190557 72.76208884 20.39208984 75.36181641 C21.33289655 89.63216793 22.18137412 103.90626653 22.9375 118.1875 C23.42247201 127.32229231 23.91484794 136.45159374 24.75 145.5625 C24.844021 146.68857666 24.844021 146.68857666 24.93994141 147.83740234 C25.69025733 155.20084759 27.95419582 161.14263263 32.375 167.0625 C36.28491809 172.34299153 38.39725017 175.96305378 38.265625 182.62109375 C37.73128818 185.20525715 37.03907482 186.10046676 35.0625 187.8125 C30.69253212 190.501711 27.57628288 190.93643095 22.49658203 190.97363281 C21.4351297 190.98324036 20.37367737 190.9928479 19.28005981 191.00274658 C18.1383432 191.00699646 16.99662659 191.01124634 15.8203125 191.015625 C14.05226761 191.02417511 14.05226761 191.02417511 12.24850464 191.03289795 C9.75535987 191.04234176 7.26220265 191.04887947 4.76904297 191.05273438 C0.9590883 191.06244498 -2.85032804 191.09347718 -6.66015625 191.125 C-9.08333013 191.13152979 -11.50650787 191.13678036 -13.9296875 191.140625 C-15.06735565 191.1529718 -16.2050238 191.1653186 -17.37716675 191.17803955 C-23.03517792 191.16213682 -27.36122083 191.13174352 -32.1875 187.8125 C-39.4945209 179.91301794 -37.54956321 169.30137093 -37.3260498 159.17443848 C-36.98292505 150.84844823 -35.84978975 142.60397711 -34.7366333 134.35214233 C-34.00312521 128.87912064 -33.33190056 123.39838391 -32.65625 117.91796875 C-32.52392975 116.85026749 -32.3916095 115.78256622 -32.25527954 114.68251038 C-29.69649493 93.86009314 -29.00580247 73.14722901 -28.875 52.1875 C-28.86519104 51.21106537 -28.85538208 50.23463074 -28.84527588 49.22860718 C-28.16477403 30.99840491 -28.16477403 30.99840491 -35.0625 14.6875 C-38.82824776 10.90333782 -42.09292775 9.74330418 -47.375 9.4375 C-59.01118097 9.78370043 -68.72595928 17.42045241 -76.875 25.125 C-77.37133942 25.67836533 -77.86767883 26.23173065 -78.37905884 26.80186462 C-80.1875 28.8125 -80.1875 28.8125 -82.23104858 30.77149963 C-90.66472214 40.10801008 -89.2401118 50.88092109 -89.0390625 62.77734375 C-89.02919774 65.01972793 -89.02261104 67.26212868 -89.01913452 69.50453186 C-89.00390468 74.19098052 -88.96295072 78.87619651 -88.90087891 83.56225586 C-88.82177895 89.54141969 -88.78565875 95.51978414 -88.76626015 101.49941158 C-88.7462206 107.23799498 -88.70656206 112.976389 -88.6640625 118.71484375 C-88.657271 119.79563643 -88.65047951 120.8764291 -88.64348221 121.98997307 C-88.5306265 136.88999624 -87.84569506 150.33624117 -82.625 164.4375 C-82.30853516 165.32050781 -81.99207031 166.20351563 -81.66601562 167.11328125 C-80.09683568 171.53473226 -80.09683568 171.53473226 -78.1875 175.8125 C-77.52010365 180.66542492 -77.43664284 183.81135712 -80.4375 187.8125 C-84.56303468 190.81288886 -87.82442349 190.93929845 -92.85473633 190.97363281 C-93.99304398 190.98324036 -95.13135162 190.9928479 -96.30415344 191.00274658 C-97.53022812 191.00699646 -98.7563028 191.01124634 -100.01953125 191.015625 C-101.28464035 191.02132507 -102.54974945 191.02702515 -103.85319519 191.03289795 C-106.53050328 191.04234466 -109.20769938 191.04924324 -111.88500977 191.05273438 C-115.30119699 191.05821147 -118.71698413 191.08223088 -122.13304615 191.11070633 C-125.40767716 191.13390836 -128.68232957 191.13578733 -131.95703125 191.140625 C-133.78703423 191.1591452 -133.78703423 191.1591452 -135.65400696 191.17803955 C-141.89860355 191.16171159 -146.7565679 191.04802957 -152.1875 187.8125 C-154.89970866 183.74418701 -154.94303767 180.50855741 -154.1875 175.8125 C-153.09659496 172.89043293 -151.88705824 170.04189016 -150.65170956 167.17886257 C-144.18377545 151.60478698 -143.56887394 135.10120922 -143.62109375 118.46484375 C-143.6158401 116.38985418 -143.60955737 114.31486699 -143.60231018 112.23988342 C-143.59200525 107.93299959 -143.59633031 103.62644832 -143.61108398 99.31958008 C-143.62837385 93.82569882 -143.60459873 88.33285364 -143.56959438 82.83908749 C-143.54756624 78.57087907 -143.54907307 74.30291743 -143.5573597 70.03466988 C-143.55817399 68.0090476 -143.55141165 65.98340626 -143.53658867 63.95783806 C-143.26936369 49.9169656 -143.26936369 49.9169656 -148.01820374 36.90235901 C-149.93837934 33.47046891 -150.1875 30.73112736 -150.1875 26.8125 C-147.24373529 19.26910294 -139.03363346 13.75328887 -132.86328125 8.921875 C-130.07558311 6.72427355 -127.35160132 4.46030334 -124.625 2.1875 C-109.21691071 -10.39541071 -109.21691071 -10.39541071 -99.5625 -10.0625 C-95.73569475 -9.0703653 -93.89865406 -8.05357715 -91.1875 -5.1875 C-88.43106436 0.32537127 -88.56000304 6.75442421 -88.1875 12.8125 C-87.30449219 11.88308594 -86.42148438 10.95367187 -85.51171875 9.99609375 C-61.4438227 -14.95496599 -29.03496414 -23.29484647 0 0 Z " fill="#7DC6A2" transform="translate(1675.1875,147.1875)"/>
<path d="M0 0 C16.12944692 15.21696573 18.27337098 35.11294536 19.59765625 56.2265625 C19.67818741 57.44458557 19.75871857 58.66260864 19.84169006 59.9175415 C20.09880687 63.82882691 20.3482293 67.7405612 20.59765625 71.65234375 C20.72995042 73.68065635 20.86325291 75.70890084 20.99670124 77.73713779 C21.89231659 91.35752114 22.73238689 104.979318 23.43652344 118.61108398 C23.2603177 144.95940525 23.2603177 144.95940525 33.59765625 167.96484375 C37.40664826 173.3189929 39.17867713 177.22500153 38.59765625 183.96484375 C36.8089263 187.0607225 35.45139634 188.56380356 32.21313477 190.08496094 C26.93145609 191.37033942 21.79172788 191.24979781 16.375 191.23046875 C14.60764244 191.23333893 14.60764244 191.23333893 12.80458069 191.23626709 C10.31918117 191.23762541 7.83377447 191.2339537 5.34838867 191.22558594 C1.54524819 191.21487218 -2.25742095 191.22549846 -6.06054688 191.23828125 C-8.47786562 191.23695978 -10.89518408 191.23439765 -13.3125 191.23046875 C-15.01733299 191.23654144 -15.01733299 191.23654144 -16.75660706 191.24273682 C-18.34867226 191.23328033 -18.34867226 191.23328033 -19.97290039 191.22363281 C-21.36805626 191.22124603 -21.36805626 191.22124603 -22.79139709 191.21881104 C-26.3756485 190.87017021 -29.29649261 189.96966652 -31.984375 187.52734375 C-35.40234375 183.18706597 -35.40234375 183.18706597 -35.40234375 180.96484375 C-36.05976562 181.40054688 -36.7171875 181.83625 -37.39453125 182.28515625 C-54.03261612 192.70086791 -74.21080913 198.17407367 -93.71484375 193.83984375 C-108.65921192 189.47180109 -120.05517806 179.50706489 -127.9921875 166.32421875 C-136.73830328 150.32887742 -137.38575598 132.24881704 -132.40234375 114.96484375 C-124.65758266 93.98117482 -106.81248094 81.10305902 -87.17483521 71.9236145 C-81.92649401 69.6057058 -76.60428962 67.46926865 -71.27734375 65.33984375 C-49.35351614 56.52023352 -49.35351614 56.52023352 -29.40234375 43.96484375 C-32.48328119 22.09911191 -32.48328119 22.09911191 -43.65234375 3.46484375 C-47.7193441 1.24647992 -50.89373887 0.96338205 -55.40234375 1.96484375 C-61.65628319 6.0266887 -65.94287494 12.00463125 -70.15234375 18.02734375 C-87.47824208 42.11553879 -87.47824208 42.11553879 -97.40234375 47.96484375 C-98.94921875 48.89296875 -98.94921875 48.89296875 -100.52734375 49.83984375 C-107.2389435 52.41648089 -116.40020586 52.29777339 -122.96484375 49.40234375 C-128.06154467 46.30285112 -130.62735425 41.99457816 -132.71484375 36.52734375 C-134.34345096 28.08819729 -133.50787109 20.27247229 -129.11328125 12.76171875 C-127.64648118 10.70662988 -126.0998837 8.83294991 -124.40234375 6.96484375 C-123.94601562 6.454375 -123.4896875 5.94390625 -123.01953125 5.41796875 C-96.85791629 -20.05878718 -27.77932407 -23.5333786 0 0 Z M-59.40234375 87.96484375 C-72.76196525 102.86765585 -76.33206342 120.35032019 -75.55029297 139.68066406 C-74.95339287 148.89617121 -72.79427312 156.20671009 -66.40234375 162.96484375 C-65.90734375 163.50882812 -65.41234375 164.0528125 -64.90234375 164.61328125 C-61.33452627 167.82803346 -56.42364509 167.43709901 -51.88996887 167.3290863 C-45.92104367 166.70570034 -41.06266854 164.77708448 -36.40234375 160.96484375 C-34.36356664 156.65304383 -34.06937284 152.43158105 -33.734375 147.7109375 C-33.59835373 146.41849625 -33.46233246 145.12605499 -33.32218933 143.79444885 C-32.96215806 140.36525775 -32.66990952 136.93355435 -32.39172363 133.49688721 C-32.0999088 130.04132834 -31.74329085 126.59256484 -31.39257812 123.14257812 C-30.65465847 115.7559032 -30.00357584 108.36384496 -29.40234375 100.96484375 C-29.30561874 99.79287949 -29.20889374 98.62091522 -29.10923767 97.41343689 C-29.01808182 96.27781815 -28.92692596 95.1421994 -28.83300781 93.97216797 C-28.75221985 92.96668915 -28.67143188 91.96121033 -28.5881958 90.92526245 C-28.26862026 85.83477567 -28.29660993 80.7506085 -28.33984375 75.65234375 C-28.34435547 74.61400391 -28.34886719 73.57566406 -28.35351562 72.50585938 C-28.36509967 69.992122 -28.38140452 67.47851752 -28.40234375 64.96484375 C-37.0376354 64.96484375 -53.15195531 81.9407925 -59.40234375 87.96484375 Z " fill="#7DC6A2" transform="translate(899.40234375,147.03515625)"/>
<path d="M0 0 C1.21839066 -0.00960754 2.43678131 -0.01921509 3.6920929 -0.02911377 C5.00566269 -0.03336365 6.31923248 -0.03761353 7.67260742 -0.04199219 C9.04017639 -0.04774942 10.40774536 -0.05350707 11.77531433 -0.05926514 C14.64090346 -0.06975682 17.50646469 -0.07561132 20.37207031 -0.07910156 C24.03038251 -0.08457975 27.6883213 -0.10860062 31.34651661 -0.13707352 C34.17165681 -0.15576806 36.99670832 -0.16090912 39.82190514 -0.16243744 C41.82205397 -0.16690715 43.82215519 -0.18551996 45.82221985 -0.20440674 C57.47369639 -0.17592825 57.47369639 -0.17592825 62.96557617 3.16113281 C65.31057316 6.6786283 65.20709368 8.13169557 65.15307617 12.28613281 C65.14663086 13.36121094 65.14018555 14.43628906 65.13354492 15.54394531 C64.96557617 19.16113281 64.96557617 19.16113281 64.62811279 21.20475769 C63.68156644 27.03887712 64.40323092 30.77304237 66.87573242 36.07910156 C67.19421646 36.80477829 67.5127005 37.53045502 67.84083557 38.27812195 C68.86036947 40.5831115 69.91000434 42.87245095 70.96557617 45.16113281 C71.63647177 46.64219556 72.30688549 48.1234767 72.97680664 49.60498047 C74.71916502 53.43293704 76.49136439 57.24636137 78.27304077 61.05615234 C85.55410739 76.63251068 92.64276986 92.28714002 99.57470703 108.02172852 C100.18792842 109.41200892 100.80128792 110.80222842 101.41479492 112.19238281 C101.70680283 112.85509689 101.99881073 113.51781097 102.29966736 114.2006073 C104.72326238 119.67511693 107.25266185 125.09761464 109.8490448 130.49230957 C111.96557617 134.94551765 111.96557617 134.94551765 111.96557617 137.16113281 C112.62557617 137.16113281 113.28557617 137.16113281 113.96557617 137.16113281 C114.12453873 136.53157684 114.28350128 135.90202087 114.44728088 135.25338745 C116.34535381 127.99874728 118.69511607 120.96664476 121.2348156 113.91330338 C121.94984565 111.92749545 122.65974493 109.93991312 123.36854553 107.95187378 C124.62122385 104.44093578 125.87825686 100.93157614 127.13677979 97.42272949 C129.14721124 91.81722064 131.15366194 86.21030283 133.15487862 80.60149765 C133.84579961 78.66833678 134.54028391 76.73648446 135.23509216 74.80471802 C143.21031431 54.57308212 143.21031431 54.57308212 140.29370117 33.86035156 C137.71060702 28.61059256 134.06685279 24.27467369 129.95776367 20.14160156 C126.59101767 16.68625698 124.50479165 14.36648546 124.27807617 9.41113281 C124.53913245 6.38287998 124.9112884 5.24155915 126.65307617 2.66113281 C130.56488799 0.12374137 134.62315279 0.03501779 139.19555664 0 C140.72271805 -0.01441132 140.72271805 -0.01441132 142.2807312 -0.02911377 C143.91523727 -0.03548859 143.91523727 -0.03548859 145.58276367 -0.04199219 C146.71328156 -0.04769226 147.84379944 -0.05339233 149.00857544 -0.05926514 C151.39739042 -0.06869952 153.78621833 -0.07524291 156.17504883 -0.07910156 C159.8202999 -0.08881317 163.46498842 -0.11985461 167.11010742 -0.15136719 C169.43432283 -0.15789718 171.75854227 -0.16314766 174.08276367 -0.16699219 C175.71119705 -0.18551239 175.71119705 -0.18551239 177.37252808 -0.20440674 C183.35042682 -0.18689399 187.71795044 0.20439841 192.96557617 3.16113281 C195.40757173 5.98469017 196.01000576 7.31810982 195.81323242 11.05175781 C194.77294817 14.86773138 193.41892239 16.08926459 190.40307617 18.59863281 C189.49686523 19.37078125 188.5906543 20.14292969 187.65698242 20.93847656 C186.76881836 21.67195313 185.8806543 22.40542969 184.96557617 23.16113281 C156.4816776 47.11233143 147.84846695 84.33457812 136.11791992 118.28613281 C88.95790725 254.77499459 88.95790725 254.77499459 64.96557617 282.16113281 C64.25788086 283.02351563 63.55018555 283.88589844 62.82104492 284.77441406 C55.93665426 292.91270425 47.73297191 299.33440505 36.80932617 300.49707031 C21.14059446 300.68011624 6.46368841 296.09995033 -5.05786133 285.27050781 C-12.69978234 277.11509804 -14.54980023 268.56999771 -14.33911133 257.54394531 C-13.84239788 252.0291524 -12.50660451 248.28873964 -8.26879883 244.64160156 C-1.15068043 239.77942226 5.78398464 238.54593951 14.28198242 239.55957031 C20.03024785 240.8481189 23.73298363 243.64409584 27.40307617 248.16113281 C29.81994081 252.80151292 30.09293799 257.05121494 30.21166992 262.23144531 C30.24454102 263.37484375 30.27741211 264.51824219 30.3112793 265.69628906 C30.3726744 268.09722931 30.42993994 270.49827857 30.4831543 272.89941406 C30.51731445 274.04023438 30.55147461 275.18105469 30.58666992 276.35644531 C30.61172607 277.39816895 30.63678223 278.43989258 30.66259766 279.51318359 C30.7874881 282.38856221 30.7874881 282.38856221 32.96557617 285.16113281 C41.40909022 284.63341318 46.63213173 280.81802431 52.40307617 274.78613281 C64.49959924 260.73587578 72.0215434 242.78543954 79.40307617 225.97363281 C79.84063232 224.98105469 80.27818848 223.98847656 80.72900391 222.96582031 C81.13578369 222.02609375 81.54256348 221.08636719 81.96166992 220.11816406 C82.32446045 219.28260986 82.68725098 218.44705566 83.06103516 217.58618164 C84.43541436 213.90150993 85.3504028 211.41853281 84.17138672 207.56616211 C83.73608643 206.63199463 83.30078613 205.69782715 82.85229492 204.73535156 C82.35560303 203.6497998 81.85891113 202.56424805 81.34716797 201.44580078 C80.78811768 200.25873535 80.22906738 199.07166992 79.65307617 197.84863281 C79.06543345 196.57472896 78.47929343 195.30013102 77.89453125 194.02490234 C76.61484033 191.23665135 75.32891457 188.45138361 74.03979492 185.66748047 C71.87809589 180.98598043 69.76152156 176.28478324 67.65307617 171.57910156 C67.28682129 170.76177551 66.92056641 169.94444946 66.54321289 169.10235596 C65.79296872 167.4277505 65.04280665 165.75310826 64.29272461 164.07843018 C57.8105671 149.61820595 51.25372417 135.1928563 44.65100098 120.78735352 C40.1913349 111.05607871 35.77240883 101.30833144 31.40307617 91.53613281 C30.88825684 90.38773926 30.3734375 89.2393457 29.84301758 88.05615234 C27.56944281 82.9845489 25.29734511 77.91246582 23.04467773 72.83154297 C21.3754901 69.0669715 19.69634667 65.30696722 18.01150513 61.54937744 C17.36533966 60.10337041 16.72270998 58.6557772 16.08395386 57.20648193 C10.76874268 45.1533536 4.67038014 36.4853075 -4.91137695 27.45019531 C-9.6075878 22.90315217 -14.05123114 18.02450174 -15.69848633 11.55175781 C-15.59319866 5.78199374 -15.59319866 5.78199374 -12.78442383 2.66113281 C-8.44473472 0.29402966 -4.92093337 0.03136017 0 0 Z " fill="#7DC6A2" transform="translate(948.034423828125,136.8388671875)"/>
<path d="M0 0 C3.52129687 2.56959501 4.78509695 5.40941421 5.71917725 9.54516602 C6.55542091 15.44472531 6.32981403 21.43293397 6.28515625 27.37890625 C6.28142008 28.84720669 6.27857597 30.31550964 6.27658081 31.78381348 C6.26899182 35.62413574 6.24938478 39.46430362 6.22717285 43.30456543 C6.20661168 47.2329703 6.19755726 51.16140043 6.1875 55.08984375 C6.16613377 62.78001784 6.13205597 70.47006531 6.08984375 78.16015625 C6.94739258 78.14968262 7.80494141 78.13920898 8.68847656 78.12841797 C11.87905888 78.09427329 15.06954787 78.06922666 18.26025391 78.05029297 C19.6395169 78.04025372 21.01875871 78.02661948 22.39794922 78.00927734 C24.38369515 77.98493871 26.36959825 77.9747237 28.35546875 77.96484375 C29.54946289 77.95437012 30.74345703 77.94389648 31.97363281 77.93310547 C34.97043671 78.15145611 36.62574017 78.48981358 39.08984375 80.16015625 C40.59918592 83.17884059 40.26495047 85.83312854 40.08984375 89.16015625 C38.08984375 92.16015625 38.08984375 92.16015625 35.08984375 93.16015625 C32.8789443 93.24374583 30.66558297 93.26747389 28.453125 93.2578125 C26.5050293 93.25297852 26.5050293 93.25297852 24.51757812 93.24804688 C23.14583267 93.23969156 21.77408788 93.23122662 20.40234375 93.22265625 C19.0188818 93.2176396 17.63541812 93.21307698 16.25195312 93.20898438 C12.8645398 93.19718154 9.47721342 93.18071644 6.08984375 93.16015625 C6.17412614 110.19040821 6.26939611 127.22055973 6.37737083 144.25067711 C6.42726743 152.15993741 6.47371072 160.06918852 6.51171875 167.97851562 C6.54489652 174.88079104 6.58486493 181.78298991 6.63263381 188.68518031 C6.65764576 192.33210189 6.67949802 195.97897438 6.69318771 199.62595749 C6.705915 226.56002331 6.705915 226.56002331 10.90234375 253.09765625 C11.04220703 253.75443359 11.18207031 254.41121094 11.32617188 255.08789062 C12.14561377 258.4166608 12.84811328 259.96807027 15.5625 262.125 C18.0481993 263.39203529 18.0481993 263.39203529 20.71484375 262.78515625 C24.01987334 260.52382021 24.98038072 257.88330954 26.08984375 254.16015625 C27.16839067 248.24259718 27.8264968 242.2680368 28.55078125 236.29882812 C28.70804688 235.08646484 28.8653125 233.87410156 29.02734375 232.625 C29.16011719 231.52792725 29.29289062 230.43085449 29.4296875 229.30053711 C30.68924915 223.30876879 33.00179916 219.55218598 38.08984375 216.16015625 C42.16222548 214.01679744 45.51803398 213.76603472 50.08984375 214.16015625 C55.86506815 216.05204011 59.95533015 218.71787727 63.19921875 223.94921875 C65.98598952 230.86725495 64.48561982 239.03945759 62.08984375 245.84765625 C59.37991233 252.17591864 55.79776903 257.1695788 51.08984375 262.16015625 C50.49558594 262.79566406 49.90132812 263.43117188 49.2890625 264.0859375 C37.33760134 275.62792676 20.80728423 279.57014645 4.6328125 279.3125 C-10.90609683 278.3815976 -24.21035153 274.45559753 -35.16015625 262.97265625 C-48.21838278 247.29760258 -49.15754247 224.04993069 -48.93188477 204.52856445 C-48.92227722 203.31751541 -48.91266968 202.10646637 -48.902771 200.85871887 C-48.87566026 197.57429852 -48.84375609 194.28996892 -48.8096211 191.00561547 C-48.77497351 187.55970128 -48.74659194 184.11373527 -48.71751404 180.66777039 C-48.66165243 174.15863695 -48.60024642 167.64956839 -48.5367927 161.14050502 C-48.46475967 153.7232584 -48.39899238 146.30596022 -48.33372223 138.88865149 C-48.19945032 123.64575233 -48.05740461 108.40293592 -47.91015625 93.16015625 C-48.76246826 93.1758667 -49.61478027 93.19157715 -50.49291992 93.20776367 C-53.67046851 93.25904587 -56.84780538 93.29658107 -60.02563477 93.32495117 C-61.39810142 93.33999057 -62.77052039 93.36042758 -64.14282227 93.38647461 C-66.12104281 93.42306846 -68.09962139 93.43832323 -70.078125 93.453125 C-71.26688232 93.46883545 -72.45563965 93.4845459 -73.68041992 93.50073242 C-77.51228631 93.09666155 -80.16714981 91.90316269 -82.91015625 89.16015625 C-83.28515625 85.84765625 -83.28515625 85.84765625 -82.91015625 82.16015625 C-80.18751093 79.27634156 -78.54349431 78.24674271 -74.58862305 77.70605469 C-72.74264526 77.73747559 -72.74264526 77.73747559 -70.859375 77.76953125 C-69.87116508 77.77802094 -69.87116508 77.77802094 -68.86299133 77.78668213 C-66.77378409 77.80894386 -64.68633852 77.85911295 -62.59765625 77.91015625 C-61.17515511 77.93023481 -59.75262688 77.94848321 -58.33007812 77.96484375 C-54.85620545 78.00877266 -51.383353 78.07772529 -47.91015625 78.16015625 C-47.24455832 66.31943382 -47.24455832 66.31943382 -51.72265625 56.03515625 C-52.52509766 55.32166016 -52.52509766 55.32166016 -53.34375 54.59375 C-56.88901159 51.34908415 -58.55438202 46.83229512 -59.53515625 42.22265625 C-57.4015175 31.76782639 -47.81525649 25.40801175 -39.91015625 19.16015625 C-39.01006836 18.44327637 -39.01006836 18.44327637 -38.09179688 17.71191406 C-34.57308494 14.91165296 -31.03281182 12.14078031 -27.47900391 9.38525391 C-26.0436468 8.26439771 -24.62259867 7.12527952 -23.203125 5.984375 C-22.42582031 5.36175781 -21.64851563 4.73914062 -20.84765625 4.09765625 C-20.19667969 3.57042969 -19.54570313 3.04320312 -18.875 2.5 C-13.4183555 -1.22093253 -6.23020278 -2.73925071 0 0 Z " fill="#7DC6A2" transform="translate(1790.91015625,58.83984375)"/>
<path d="M0 0 C0.66 0.33 1.32 0.66 2 1 C1.45472656 1.680625 0.90945313 2.36125 0.34765625 3.0625 C-17.12515526 25.5232765 -25.27780938 49.63791268 -25.0625 78.125 C-25.05573242 79.84589844 -25.05573242 79.84589844 -25.04882812 81.6015625 C-25.03716339 84.40109813 -25.02079614 87.20051986 -25 90 C-6.30963662 80.75517132 12.31199186 71.47605596 30.54296875 61.34814453 C35.62995373 58.55697491 40.78054084 55.88461262 45.92797852 53.20703125 C46.65428467 52.82804687 47.38059082 52.4490625 48.12890625 52.05859375 C48.80195801 51.70780762 49.47500977 51.35702148 50.16845703 50.99560547 C51.78449575 50.11714561 53.34882067 49.14496025 54.90234375 48.16015625 C55.59457031 47.77730469 56.28679687 47.39445312 57 47 C57.66 47.33 58.32 47.66 59 48 C34.72259389 64.50059419 9.97911465 79.88130793 -15.734375 94.046875 C-20.25873583 96.55172272 -24.64417387 99.21309703 -29 102 C-4.12886701 119.4383806 22.53745876 130.22680953 53.25 130.125 C54.97669922 130.13080078 54.97669922 130.13080078 56.73828125 130.13671875 C64.20728797 130.12829822 71.56840143 129.74383761 79 129 C75.56472107 131.29018595 72.26192168 132.10869109 68.3125 133.0625 C67.62994141 133.23587891 66.94738281 133.40925781 66.24414062 133.58789062 C56.82675076 135.90889039 47.79470471 136.15556809 38.125 136.125 C36.90941406 136.12886719 35.69382812 136.13273438 34.44140625 136.13671875 C23.98670534 136.12544076 14.45556646 135.51781949 4.4375 132.4375 C3.57688965 132.17356445 2.7162793 131.90962891 1.82958984 131.63769531 C-12.73354287 127.00214433 -24.88850936 120.22943621 -37 111 C-39.69855043 108.77068303 -39.69855043 108.77068303 -42.15136719 109.1081543 C-46.20799195 110.37819631 -49.82252164 112.29557934 -53.578125 114.26953125 C-54.41413742 114.70214767 -55.25014984 115.1347641 -56.11149597 115.58049011 C-57.90050183 116.50661592 -59.68815788 117.435353 -61.47457886 118.36645508 C-66.11776114 120.78563755 -70.77143131 123.18442162 -75.42578125 125.58203125 C-76.34202774 126.05432159 -77.25827423 126.52661194 -78.20228577 127.01321411 C-88.2007129 132.15376558 -98.32176184 137.00931007 -108.49169922 141.80078125 C-112.69052907 143.80824205 -116.8465186 145.90064659 -121 148 C-119.160233 153.51930101 -113.50589016 156.54112166 -109 160 C-108.47180664 160.40702148 -107.94361328 160.81404297 -107.39941406 161.23339844 C-82.19258776 180.44806227 -54.06181392 190.89896768 -23 196 C-21.89269531 196.19078125 -20.78539062 196.3815625 -19.64453125 196.578125 C-14.13022895 197.21643652 -8.60790518 197.37019203 -3.0625 197.5625 C-1.32129883 197.62727539 -1.32129883 197.62727539 0.45507812 197.69335938 C3.30328232 197.79884842 6.15156529 197.90096555 9 198 C0.70512061 203.52991959 -12.62813752 202.31948505 -22.38623047 202.26074219 C-24.4986641 202.25000679 -26.61024782 202.26072099 -28.72265625 202.2734375 C-50.75888672 202.29826841 -72.09063567 197.37543271 -92 188 C-93.0533252 187.5052417 -93.0533252 187.5052417 -94.12792969 187.00048828 C-110.39981614 179.20523999 -124.04880814 168.46061642 -137 156 C-147.06673661 160.05380214 -156.97061599 164.3178931 -166.78173828 168.95654297 C-171.38441556 171.1216148 -176.00290553 173.25176436 -180.625 175.375 C-181.5739917 175.81626221 -182.5229834 176.25752441 -183.50073242 176.7121582 C-184.40025635 177.12425537 -185.29978027 177.53635254 -186.2265625 177.9609375 C-187.02658691 178.33009277 -187.82661133 178.69924805 -188.65087891 179.07958984 C-191.08931393 180.03499413 -193.42217328 180.56378758 -196 181 C-168.5446774 213.39904629 -128.31455812 233.50972056 -85.95849609 237.27001953 C-79.97580404 237.66873757 -73.99418252 237.87741958 -68 238 C-68 238.33 -68 238.66 -68 239 C-72.24738524 240.03061932 -76.3762593 240.16108005 -80.72265625 240.16796875 C-81.463983 240.17129715 -82.20530975 240.17462555 -82.96910095 240.17805481 C-84.53660465 240.18310414 -86.10411904 240.18546375 -87.67163086 240.18530273 C-90.03062494 240.18747071 -92.38913654 240.20559586 -94.74804688 240.22460938 C-135.63836036 240.38306443 -174.73286841 220.70406195 -204 193 C-204.62777344 192.23429688 -205.25554687 191.46859375 -205.90234375 190.6796875 C-207.89057653 188.72965462 -207.89057653 188.72965462 -210.6015625 188.99609375 C-215.32486627 190.39136854 -219.8303638 192.17092125 -224.375 194.0625 C-225.35162598 194.465896 -226.32825195 194.86929199 -227.33447266 195.28491211 C-235.10682652 198.5377295 -242.63487068 202.13686593 -250.10546875 206.02490234 C-252.02853006 207.01468416 -253.96392471 207.9744087 -255.90625 208.92578125 C-261.61773399 211.72874339 -267.27784192 214.55610114 -272.796875 217.7265625 C-273.60141113 218.18691895 -274.40594727 218.64727539 -275.23486328 219.12158203 C-276.79214319 220.01968237 -278.34301753 220.92901199 -279.88623047 221.85107422 C-284.1042499 224.28583481 -286.97636162 225.57050783 -292 225 C-300.07793118 209.95833505 -300.07793118 209.95833505 -298 202 C-290.74406882 199.5199304 -283.42317865 197.33388844 -276.0625 195.1875 C-266.58735804 192.40484226 -257.18906399 189.4782067 -247.84375 186.2890625 C-244.46294611 185.13938952 -241.0545557 184.12095683 -237.625 183.125 C-230.78541752 181.07049127 -224.22108506 178.36301048 -217.62548828 175.64111328 C-216.79645996 175.30063965 -215.96743164 174.96016602 -215.11328125 174.609375 C-214.36860596 174.29967773 -213.62393066 173.98998047 -212.85668945 173.67089844 C-211 173 -211 173 -209 173 C-209.33 172.34 -209.66 171.68 -210 171 C-211.19068161 163.57547593 -211.15238157 156.06048578 -211.125 148.5625 C-211.12886719 147.50740234 -211.13273437 146.45230469 -211.13671875 145.36523438 C-211.09609356 112.35727133 -198.69935741 80.81639217 -177 56 C-176.39285156 55.27167969 -175.78570312 54.54335937 -175.16015625 53.79296875 C-171.15206876 49.03961329 -166.77413192 44.97362091 -162 41 C-161.39285156 40.48953125 -160.78570312 39.9790625 -160.16015625 39.453125 C-158.7786116 38.29587819 -157.39016057 37.14688247 -156 36 C-155.34 36.33 -154.68 36.66 -154 37 C-154.928125 37.845625 -155.85625 38.69125 -156.8125 39.5625 C-180.83441073 63.87441368 -196.09890538 102.69975145 -196.1328125 136.78125 C-196.13410156 138.03550781 -196.13539063 139.28976563 -196.13671875 140.58203125 C-196.13285156 141.87496094 -196.12898438 143.16789063 -196.125 144.5 C-196.12886719 145.79292969 -196.13273437 147.08585938 -196.13671875 148.41796875 C-196.13542969 149.67222656 -196.13414062 150.92648438 -196.1328125 152.21875 C-196.13112061 153.9193457 -196.13112061 153.9193457 -196.12939453 155.65429688 C-195.99378479 159.16070419 -195.55353333 162.53698114 -195 166 C-185.94431027 163.20964429 -177.29111626 159.47415308 -168.5625 155.8125 C-166.94095134 155.13525538 -165.31936921 154.45809089 -163.69775391 153.78100586 C-154.66166704 150.0002357 -145.64664131 146.18051783 -136.74829102 142.08325195 C-132.19468639 140 -132.19468639 140 -130 140 C-130.03480469 138.70449219 -130.06960937 137.40898437 -130.10546875 136.07421875 C-130.72958844 102.82881284 -121.14603986 71.44594646 -99 46 C-98.26265625 45.12601563 -97.5253125 44.25203125 -96.765625 43.3515625 C-87.70495444 32.90930033 -77.49069788 24.56303485 -66 17 C-65.34 17.33 -64.68 17.66 -64 18 C-64.7734375 18.68964844 -65.546875 19.37929687 -66.34375 20.08984375 C-94.30682981 45.21608938 -113.10500805 80.89962197 -115.31640625 118.83984375 C-115.40168719 120.5389025 -115.4836699 122.23812973 -115.5625 123.9375 C-115.60568359 124.81212891 -115.64886719 125.68675781 -115.69335938 126.58789062 C-115.79846901 128.72511995 -115.89963985 130.86254238 -116 133 C-98.06785062 124.93432202 -80.20348741 116.73854023 -62.4375 108.3125 C-61.6212616 107.92564026 -60.80502319 107.53878052 -59.96405029 107.14019775 C-57.61989425 106.02846358 -55.27652536 104.91509329 -52.93359375 103.80078125 C-52.24834122 103.47526779 -51.56308868 103.14975433 -50.85707092 102.81437683 C-46.20930023 100.5986253 -41.5998861 98.31356356 -37 96 C-37.01571045 95.25540527 -37.0314209 94.51081055 -37.04760742 93.74365234 C-37.54389095 66.65955464 -37.54389095 66.65955464 -34 55 C-33.59974609 53.43765625 -33.59974609 53.43765625 -33.19140625 51.84375 C-27.53516586 31.12934075 -15.18753613 14.79811213 0 0 Z " fill="#41894A" transform="translate(354,90)"/>
<path d="M0 0 C4.07547475 3.85517882 5.76828442 8.34889392 6.25333309 13.89843655 C6.25578454 15.42059072 6.25578454 15.42059072 6.25828552 16.97349548 C6.26511353 18.14646179 6.27194153 19.3194281 6.27897644 20.52793884 C6.27642349 21.80125565 6.27387054 23.07457245 6.27124023 24.38647461 C6.27563157 25.75216989 6.28093521 27.1178625 6.28707886 28.48355103 C6.29855431 31.4185595 6.30403652 34.35349601 6.30496025 37.28852654 C6.306909 41.94327661 6.32500967 46.59787938 6.34571838 51.25257874 C6.39481149 62.8208511 6.42569207 74.38916362 6.44702148 85.95751953 C6.46361006 94.93809919 6.48662654 103.91855249 6.53004223 112.89904791 C6.55163811 117.51125989 6.55989333 122.12323077 6.55764949 126.73548973 C6.55933565 129.62724309 6.57350232 132.51884385 6.59086227 135.41054153 C6.59898483 137.3577796 6.59259633 139.30506202 6.585495 141.25230408 C6.68611934 153.75073024 8.91329965 165.41832816 13.6875 177 C16.23916367 183.21229987 18.1390755 188.44369801 16.4375 195.25 C13.53183354 198.78733308 9.5818267 199.83781542 5.18338013 200.28878784 C1.75568087 200.41321403 -1.65987541 200.44193291 -5.08984375 200.43359375 C-6.34833633 200.4388356 -7.60682892 200.44407745 -8.90345764 200.44947815 C-11.55892471 200.45588782 -14.21352799 200.45602433 -16.86889648 200.44604492 C-20.2526086 200.43456024 -23.63527625 200.45477361 -27.01885128 200.48396206 C-30.27168629 200.50683973 -33.52444724 200.49985231 -36.77734375 200.49609375 C-37.98277328 200.50732773 -39.18820282 200.51856171 -40.43016052 200.53013611 C-47.40263049 200.47265976 -52.09709536 199.81963132 -58 196 C-59.8000789 192.3998422 -59.55557657 188.87865137 -59 185 C-58.13836198 182.52173821 -57.23667118 180.11409644 -56.25 177.6875 C-49.80279153 161.67642633 -48.36861951 145.37407086 -48.3984375 128.26171875 C-48.39063366 126.35650775 -48.38195836 124.45130014 -48.37246704 122.5460968 C-48.35771673 118.59905568 -48.35800509 114.65237316 -48.36865234 110.70532227 C-48.38035393 105.6592715 -48.34603237 100.61466243 -48.299963 95.56885052 C-48.27049083 91.6542156 -48.26874202 87.73993104 -48.27498245 83.82520485 C-48.27396027 81.96372382 -48.26356455 80.10222209 -48.24335861 78.24085045 C-48.21860286 75.64747501 -48.23220807 73.05695463 -48.25537109 70.46362305 C-48.24008362 69.70669662 -48.22479614 68.9497702 -48.20904541 68.16990662 C-48.31344624 62.8656248 -49.87448426 60.24912383 -53.56757545 56.4686861 C-57.27940028 52.66289713 -58.8410248 47.74872722 -59.3125 42.5625 C-55.21253773 31.43403098 -42.9617693 23.77566544 -34.01367188 16.6171875 C-32.23132549 15.18577837 -30.46300124 13.74012369 -28.703125 12.28125 C-26.15139843 10.16655947 -23.58525345 8.07349679 -21 6 C-20.34773438 5.47664062 -19.69546875 4.95328125 -19.0234375 4.4140625 C-13.05243116 -0.13652823 -7.36565034 -2.08461802 0 0 Z " fill="#7DC6A2" transform="translate(1493,138)"/>
<path d="M0 0 C6.8271487 5.50041535 12.45635276 12.49754291 13.8125 21.3125 C14.67283333 31.06294444 14.96487012 40.6661789 9.8125 49.3125 C9.4 50.01503906 8.9875 50.71757813 8.5625 51.44140625 C3.09008539 59.63448154 -4.92868215 64.72167181 -14.46875 66.87890625 C-24.53181239 68.4837912 -34.19725859 67.07095687 -42.9375 61.625 C-51.74613266 55.21155905 -56.40533192 47.73820034 -58.9375 37.1875 C-59.95889426 25.441466 -57.90996588 16.17211662 -51.1875 6.3125 C-37.92521852 -8.82813036 -16.39234085 -11.23063047 0 0 Z " fill="#7DC6A2" transform="translate(1494.1875,44.6875)"/>
<path d="M0 0 C5.1833801 4.15114381 8.68345135 9.10684162 10.01171875 15.7109375 C10.79515944 23.03161281 9.7978064 29.33662045 6.01171875 35.7109375 C1.228503 41.57423422 -4.52682095 44.65132184 -11.98828125 45.7109375 C-19.5136592 46.05106758 -26.10774168 44.57522849 -31.98828125 39.7109375 C-38.8438973 31.48419824 -39.7976411 24.26780508 -38.98828125 13.7109375 C-37.3234797 7.05173132 -32.57710572 2.44340331 -26.98828125 -1.2890625 C-18.00417675 -5.6421853 -8.47492807 -5.49455061 0 0 Z " fill="#7DC6A2" transform="translate(1905.98828125,296.2890625)"/>
<path d="M0 0 C1.65 0 3.3 0 5 0 C10.42839998 10.47361879 15.21258055 21.22270972 20 32 C25.40171302 21.50042032 30.27711048 10.81971053 35 0 C36.98 0 38.96 0 41 0 C41 13.53 41 27.06 41 41 C39.35 41 37.7 41 36 41 C35.67 32.09 35.34 23.18 35 14 C31.04 22.91 27.08 31.82 23 41 C21.35 41 19.7 41 18 41 C13.5960189 32.47314297 9.71388412 23.84258123 6 15 C5.67 23.58 5.34 32.16 5 41 C3.35 41 1.7 41 0 41 C0 27.47 0 13.94 0 0 Z " fill="#7DC6A2" transform="translate(1879,63)"/>
<path d="M0 0 C9.24 0 18.48 0 28 0 C28 1.65 28 3.3 28 5 C24.37 5 20.74 5 17 5 C17 17.21 17 29.42 17 42 C15.35 42 13.7 42 12 42 C12 29.79 12 17.58 12 5 C8.04 5 4.08 5 0 5 C0 3.35 0 1.7 0 0 Z " fill="#7DC6A2" transform="translate(1845,62)"/>
</svg>
