<?xml version="1.0" encoding="UTF-8"?>
<svg version="1.1" xmlns="http://www.w3.org/2000/svg" width="168" height="146">
<path d="M0 0 C2.47975257 0.68359288 4.9602719 1.36440823 7.44140625 2.04296875 C11.28605137 3.0949701 15.12842518 4.15330983 18.96557617 5.23242188 C25.28241732 7.00831395 31.57682663 8.6560957 38 10 C36.88037617 12.98566354 35.63264793 15.65870027 34.07421875 18.453125 C31.45611301 23.65843736 30.59031549 29.05673013 29.5625 34.75 C25.21153416 56.8052965 15.03808782 73.85035253 -3.72753906 86.70288086 C-19.16651269 96.82726776 -38.04354835 103.68931043 -56.625 99.9375 C-70.66083551 96.15140585 -82.01787076 88.34584746 -91 77 C-96.19474784 77.73404046 -99.86143761 80.12621338 -104.28125 82.8203125 C-107.40123735 84.17410011 -108.80869859 84.0059537 -112 83 C-112.625 79.625 -112.625 79.625 -113 76 C-110.13367056 73.13367056 -106.70683574 72.7684332 -102.875 71.875 C-102.12089844 71.69324219 -101.36679688 71.51148437 -100.58984375 71.32421875 C-98.72808054 70.87645291 -96.86422747 70.43739278 -95 70 C-95.15597656 69.16339844 -95.31195313 68.32679687 -95.47265625 67.46484375 C-98.43313289 49.76080134 -96.33786709 33.06436582 -86 18 C-64.09223415 -8.6989467 -30.92535626 -8.84944053 0 0 Z " fill="#54B469" transform="translate(121,23)"/>
<path d="M0 0 C0.99 0.495 0.99 0.495 2 1 C1.67386719 1.46148437 1.34773438 1.92296875 1.01171875 2.3984375 C-4.63823178 10.83169699 -6.13258243 19.03923568 -7 29 C-3.95455498 27.59135768 -0.91439157 26.17165089 2.125 24.75 C2.9809375 24.35425781 3.836875 23.95851563 4.71875 23.55078125 C9.42927715 21.34045697 13.76501846 19.02697041 18 16 C18.66 16.33 19.32 16.66 20 17 C11.73455182 23.67867159 2.50167962 28.33879868 -7 33 C0.98649742 40.21361057 9.92630641 41.99631786 20.3125 42.5625 C21.42334961 42.62727539 21.42334961 42.62727539 22.55664062 42.69335938 C24.37091464 42.79870432 26.1854355 42.89978316 28 43 C22.04482452 46.97011699 13.87737109 46.66075718 6.98828125 45.34375 C1.5064962 44.08054429 -3.62285873 42.67397383 -8.125 39.1875 C-10.71371308 36.70967292 -10.71371308 36.70967292 -13.35546875 37.203125 C-16.17841354 38.05376124 -18.58513859 39.18061066 -21.1875 40.5625 C-25.79320113 43 -25.79320113 43 -28 43 C-28 43.66 -28 44.32 -28 45 C-31.3 46.65 -34.6 48.3 -38 50 C-25.46692852 62.23466502 -10.88749875 65.08716223 6 66 C-0.17117671 69.96036856 -10.30827119 68.92949344 -17.27734375 67.54882812 C-23.7968233 65.89317822 -30.47269525 63.93451273 -36 60 C-36 59.34 -36 58.68 -36 58 C-36.763125 57.731875 -37.52625 57.46375 -38.3125 57.1875 C-40.87380884 56.05575888 -42.19692938 55.08776599 -44 53 C-49.27684692 54.69048689 -54.30489928 56.78792929 -59.390625 58.9765625 C-62 60 -62 60 -64 60 C-64 60.99 -64 61.98 -64 63 C-63.38125 63.309375 -62.7625 63.61875 -62.125 63.9375 C-60.75 64.625 -59.375 65.3125 -58 66 C-58 66.66 -58 67.32 -58 68 C-57.2575 68.268125 -56.515 68.53625 -55.75 68.8125 C-53 70 -53 70 -51.125 71.4453125 C-42.908561 77.45660427 -31.89411147 79.12968464 -22 80 C-22 80.33 -22 80.66 -22 81 C-39.42076748 81.62714763 -52.58112877 77.43613267 -66.453125 66.515625 C-67.21882813 65.76539062 -67.21882813 65.76539062 -68 65 C-68 64.34 -68 63.68 -68 63 C-69.093125 63.495 -70.18625 63.99 -71.3125 64.5 C-75 66 -75 66 -78 66 C-78 66.66 -78 67.32 -78 68 C-80.55439402 69.37174861 -83.11664431 70.72225408 -85.6875 72.0625 C-86.40873047 72.45244141 -87.12996094 72.84238281 -87.87304688 73.24414062 C-93.3241843 76.05682797 -93.3241843 76.05682797 -97.01953125 75.74609375 C-97.67308594 75.49988281 -98.32664062 75.25367187 -99 75 C-99.625 71.625 -99.625 71.625 -100 68 C-97.67206275 65.67206275 -96.32045097 65.38044133 -93.16796875 64.5625 C-92.20439453 64.30726562 -91.24082031 64.05203125 -90.24804688 63.7890625 C-88.73307617 63.39847656 -88.73307617 63.39847656 -87.1875 63 C-85.20110254 62.48192087 -83.21539897 61.96117246 -81.23046875 61.4375 C-79.90631958 61.09525391 -79.90631958 61.09525391 -78.55541992 60.74609375 C-75.95572071 59.98707199 -73.49666142 59.04567507 -71 58 C-70.94839722 57.14003418 -70.94839722 57.14003418 -70.89575195 56.26269531 C-69.70794103 37.898586 -66.28712766 23.65431307 -52 11 C-51.34 11 -50.68 11 -50 11 C-50 13 -50 13 -51.375 14.625 C-53 16 -53 16 -55 16 C-55.2475 16.66 -55.495 17.32 -55.75 18 C-56.71473093 20.31535424 -57.74415893 22.37242194 -58.9375 24.5625 C-63.89987303 34.48724607 -64.56859752 45.11080638 -65 56 C-64.48091064 55.76289307 -63.96182129 55.52578613 -63.42700195 55.28149414 C-61.0579332 54.20305916 -58.68528842 53.13272454 -56.3125 52.0625 C-55.08756836 51.50272461 -55.08756836 51.50272461 -53.83789062 50.93164062 C-49.92104302 49.17143785 -46.3022011 47.55201358 -42 47 C-42.04640625 46.35675781 -42.0928125 45.71351562 -42.140625 45.05078125 C-42.65910795 32.07019028 -38.57209699 21.69757016 -30 12 C-27.44435336 9.50954843 -24.81424777 7.19301755 -22 5 C-21.01 5.495 -21.01 5.495 -20 6 C-20.42410156 6.35449219 -20.84820312 6.70898438 -21.28515625 7.07421875 C-29.06133647 14.13259772 -35.11340032 24.37889772 -36 35 C-36.0415079 37.6686388 -36.02510362 40.33064855 -36 43 C-35.28344238 42.66677734 -34.56688477 42.33355469 -33.82861328 41.99023438 C-30.59587992 40.48956607 -27.36048978 38.99471548 -24.125 37.5 C-22.99707031 36.97535156 -21.86914062 36.45070312 -20.70703125 35.91015625 C-19.63066406 35.41386719 -18.55429688 34.91757813 -17.4453125 34.40625 C-16.45031738 33.94541016 -15.45532227 33.48457031 -14.43017578 33.00976562 C-12 32 -12 32 -10 32 C-10.04640625 31.03320312 -10.0928125 30.06640625 -10.140625 29.0703125 C-10.37020712 20.7889574 -9.95570096 14.50523619 -6 7 C-5.34 7 -4.68 7 -4 7 C-3.71125 6.21625 -3.4225 5.4325 -3.125 4.625 C-2 2 -2 2 0 0 Z " fill="#3C8E4C" transform="translate(108,31)"/>
<path d="M0 0 C1.04736328 -0.00128906 2.09472656 -0.00257812 3.17382812 -0.00390625 C4.26244141 -0.00003906 5.35105469 0.00382812 6.47265625 0.0078125 C7.55740234 0.00394531 8.64214844 0.00007813 9.75976562 -0.00390625 C10.80841797 -0.00261719 11.85707031 -0.00132813 12.9375 0 C14.36823853 0.00169189 14.36823853 0.00169189 15.82788086 0.00341797 C18.49307317 0.13080113 20.93765773 0.53881204 23.53515625 1.1328125 C20.4470593 2.89743933 19.30203489 3.1328125 15.53515625 3.1328125 C15.53515625 2.4728125 15.53515625 1.8128125 15.53515625 1.1328125 C12.80569765 1.27425082 10.07667502 1.42080779 7.34765625 1.5703125 C6.57873047 1.60962891 5.80980469 1.64894531 5.01757812 1.68945312 C1.80217121 1.86885351 -1.18200397 2.06760115 -4.328125 2.79296875 C-6.46484375 3.1328125 -6.46484375 3.1328125 -9.46484375 1.1328125 C-6.24963096 0.17956083 -3.34737007 0.00396306 0 0 Z " fill="#58AA6E" transform="translate(81.46484375,17.8671875)"/>
<path d="M0 0 C0 2 0 2 -1.375 3.625 C-3 5 -3 5 -5 5 C-5.66 6.65 -6.32 8.3 -7 10 C-7.99 10 -8.98 10 -10 10 C-8.50006099 6.10015857 -4.53875449 0 0 0 Z " fill="#3F9A51" transform="translate(58,42)"/>
</svg>
