<?xml version="1.0" encoding="UTF-8"?>
<svg version="1.1" xmlns="http://www.w3.org/2000/svg" width="1975" height="475">
<path d="M0 0 C1.05912598 0.19335938 2.11825195 0.38671875 3.20947266 0.5859375 C26.24280074 4.90781287 48.52192347 11.75346071 70.875 18.66796875 C101.07449232 28.0067875 130.56231545 36.85493576 162 41 C160.49965694 44.1339375 158.70763979 46.84639143 156.67456055 49.66625977 C142.36327315 69.86015036 138.38879832 93.46546115 134.38809204 117.3692627 C128.60421517 151.91879662 117.93736889 182.56037949 97 211 C96.55930176 211.5990918 96.11860352 212.19818359 95.66455078 212.81542969 C58.23021755 263.1442737 1.75514482 296.66984651 -60.14526367 306.33496094 C-77.15762161 308.56543922 -97.4577909 308.75970186 -114 304 C-115.03858154 303.70198486 -115.03858154 303.70198486 -116.09814453 303.39794922 C-143.58403045 295.32098296 -168.90272413 281.39127112 -189.5234375 261.42529297 C-191.02276015 259.97803014 -192.54177106 258.5536247 -194.0625 257.12890625 C-201.44496908 250.09809495 -207.3400904 242.46482055 -213 234 C-226.19334197 239.48870299 -238.72379201 245.98249707 -251.26171875 252.828125 C-252.26251465 253.37275391 -253.26331055 253.91738281 -254.29443359 254.47851562 C-256.57703796 255.76214587 -258.75732725 257.129855 -260.95703125 258.546875 C-264 260 -264 260 -266.72265625 259.80078125 C-270.28759294 256.98185189 -271.12438066 253.43425492 -272.4375 249.1875 C-272.71787109 248.37990234 -272.99824219 247.57230469 -273.28710938 246.74023438 C-275.18368318 240.87766067 -275.18368318 240.87766067 -274.44873047 237.3659668 C-272.39981283 234.01981565 -270.51374166 233.78447043 -266.76171875 232.7890625 C-266.13253036 232.61514984 -265.50334198 232.44123718 -264.85508728 232.26205444 C-263.50445804 231.89090385 -262.15127855 231.52893448 -260.79595947 231.17529297 C-257.97038457 230.43783796 -255.1574906 229.65699232 -252.34344482 228.87689209 C-250.92838239 228.48467215 -249.5127288 228.09457886 -248.09649658 227.706604 C-241.87483227 225.99469969 -235.73962064 224.06238252 -229.625 222 C-228.31728638 221.56421631 -228.31728638 221.56421631 -226.9831543 221.11962891 C-223.20040485 220.07765749 -223.20040485 220.07765749 -220 218 C-220.55169397 215.14704113 -221.16266729 212.33082689 -221.8125 209.5 C-231.99482704 162.64990402 -224.39381964 112.3002445 -198.5 71.625 C-189.09109568 57.24961834 -177.70748113 44.36777355 -164 34 C-162.96488281 33.19949219 -161.92976563 32.39898437 -160.86328125 31.57421875 C-135.78311446 12.61224976 -104.9201925 2.28171329 -74 -2 C-72.98728027 -2.14356934 -72.98728027 -2.14356934 -71.95410156 -2.29003906 C-48.62451224 -5.10898901 -23.04144214 -4.28172902 0 0 Z " fill="#58B668" transform="translate(340,57)"/>
<path d="M0 0 C1.41020164 -0.00361794 1.41020164 -0.00361794 2.84889221 -0.00730896 C4.84193122 -0.00632959 6.83499712 0.00708543 8.82788086 0.03198242 C11.83740079 0.06593796 14.84392318 0.0527347 17.85351562 0.03320312 C37.41346166 0.04742625 51.33042205 4.28021388 65.56640625 18.25390625 C71.75105333 24.53682809 76.82261768 31.09619269 81.44140625 38.62890625 C81.80540527 39.21833008 82.1694043 39.80775391 82.54443359 40.41503906 C120.00646662 101.7755453 127.2949212 181.07348434 138.44140625 250.62890625 C142.83102879 224.78996532 146.93434422 198.91112889 150.9409256 173.01028633 C151.98079043 166.28878772 153.02469228 159.56791954 154.0692749 152.84715271 C157.03384827 133.77020113 159.99515287 114.69274659 162.94824219 95.61401367 C164.59049195 85.00431375 166.2369683 74.39527882 167.88819671 63.78697246 C168.92771022 57.10711784 169.96203584 50.42648745 170.99251604 43.74523365 C171.63124677 39.61228717 172.27495245 35.48012729 172.92010498 31.34817886 C173.21807783 29.43324309 173.51400125 27.51798713 173.80773163 25.60239601 C174.20847358 22.99088216 174.61652544 20.38061232 175.02642822 17.77052307 C175.14102017 17.01199919 175.25561211 16.2534753 175.37367654 15.47196585 C176.20083017 10.27702179 176.94107005 6.16291511 180.67344666 2.34677124 C183.9781835 0.29576886 185.86155263 0.13301031 189.72875977 0.14306641 C190.97677872 0.13691315 192.22479767 0.13075989 193.51063538 0.12442017 C194.86386862 0.13821599 196.21709451 0.15274996 197.5703125 0.16796875 C198.96605763 0.17035513 200.36180602 0.17125809 201.7575531 0.17074585 C204.67703477 0.17386776 207.59602324 0.19038651 210.51538086 0.21728516 C214.25352237 0.25129603 217.99112346 0.25891247 221.72940159 0.25739479 C224.60936114 0.25793912 227.48920308 0.26891572 230.36912346 0.28339767 C231.74739633 0.28975141 233.12568248 0.29370123 234.50396919 0.29518509 C236.43051078 0.29953128 238.35700197 0.31863312 240.28344727 0.33837891 C241.37867203 0.3460025 242.47389679 0.3536261 243.60231018 0.36148071 C246.42746244 0.62759283 248.06984627 1.11149597 250.44140625 2.62890625 C253.15315397 6.15417829 252.83240409 10.38120469 252.44140625 14.62890625 C251.73165231 17.31578401 250.70921489 19.82178427 249.62890625 22.37890625 C245.07747855 33.79950716 242.28548956 45.0582716 242.30096436 57.42430115 C242.29799323 58.17853381 242.29502211 58.93276647 242.29196095 59.70985466 C242.28333351 62.2212134 242.28177076 64.73252414 242.28027344 67.24389648 C242.27564089 69.05145874 242.27061564 70.85902003 242.26522827 72.6665802 C242.2521407 77.56790976 242.24566594 82.46922565 242.24121761 87.37056994 C242.2382798 90.43900976 242.23417358 93.50744591 242.22971344 96.57588387 C242.21604547 106.19421541 242.2063765 115.81253848 242.20251155 125.43087906 C242.19803833 136.49969189 242.18052168 147.56838078 242.15151095 158.63715595 C242.12981898 167.21412416 242.1198032 175.7910577 242.11847043 184.36805302 C242.11742738 189.48033076 242.1116274 194.59249189 242.09365082 199.70474052 C242.07704063 204.52207787 242.07507672 209.33921256 242.08378983 214.15656853 C242.08455344 215.91238451 242.08030816 217.66821198 242.07033157 219.42399979 C241.99172841 234.13533215 243.37260204 247.9051079 249.12890625 261.62890625 C251.61004311 267.56965649 253.02227755 272.14134367 252.44140625 278.62890625 C250.64776714 281.43894085 249.4225969 283.13831093 246.44140625 284.62890625 C244.43609276 284.7408419 242.4270584 284.78821522 240.41870117 284.8059082 C239.15366257 284.81874344 237.88862396 284.83157867 236.58525085 284.84480286 C235.19746288 284.85297047 233.80967048 284.86041416 232.421875 284.8671875 C231.37486136 284.87330079 231.37486136 284.87330079 230.30669594 284.87953758 C226.61161215 284.90039847 222.91656549 284.91469959 219.22143555 284.92407227 C215.4080702 284.93513197 211.59528916 284.96952578 207.78213024 285.00924397 C204.84726388 285.03541316 201.91253662 285.04376435 198.97756386 285.04735374 C197.57215749 285.05221965 196.16675734 285.06383396 194.76146507 285.08239174 C192.79188505 285.10678276 190.82202078 285.1033984 188.85229492 285.09887695 C187.17256844 285.10767632 187.17256844 285.10767632 185.45890808 285.11665344 C181.75065008 284.51725284 180.08574135 283.24970602 177.44140625 280.62890625 C175.26939205 273.00865533 178.25103323 265.70218078 181.08398438 258.703125 C187.56117976 242.62498044 187.5932899 225.81302786 187.55493164 208.74316406 C187.55464904 206.96801759 187.55480893 205.19287101 187.55537415 203.41772461 C187.55565927 198.63345342 187.54980883 193.84920767 187.54280019 189.06494236 C187.53651899 184.05214634 187.5359591 179.03934964 187.53477478 174.02655029 C187.53167546 164.5496315 187.52348104 155.07272434 187.51342529 145.59581065 C187.50222057 134.80009244 187.49674274 124.00437365 187.49172986 113.20865107 C187.48129717 91.01539632 187.46372498 68.82215202 187.44140625 46.62890625 C186.78140625 46.62890625 186.12140625 46.62890625 185.44140625 46.62890625 C185.40619307 47.32253832 185.37097988 48.01617039 185.33469963 48.73082161 C184.6555427 59.5049091 182.94415652 70.07679886 181.25439453 80.72998047 C180.9237322 82.83867558 180.59349279 84.94743705 180.26364136 87.05625916 C179.37178495 92.74871351 178.47337257 98.44011399 177.57321787 104.13126135 C176.8209718 108.89035712 176.07164672 113.64991112 175.32220829 118.4094497 C173.55448902 129.63474394 171.78109857 140.85913246 170.00439453 152.08300781 C168.17280637 163.65438885 166.35190113 175.2274165 164.53601658 186.80127132 C162.97400104 196.75420139 161.40486389 206.70599138 159.83012187 216.65691578 C158.8907392 222.59362773 157.95417996 228.53075086 157.02469254 234.46902084 C156.15134492 240.04688435 155.26913071 245.62327383 154.38008499 251.19865608 C154.05560288 253.24316459 153.73426714 255.28817535 153.41632843 257.33371162 C152.98149731 260.12803316 152.5352878 262.92030942 152.08621216 265.71237183 C151.96334056 266.51966826 151.84046896 267.3269647 151.71387398 268.15872467 C150.77917167 273.85829259 149.76123264 279.7445212 145.08850098 283.54016113 C142.22129903 284.71943594 140.17942506 285.02039303 137.08789062 285.04882812 C136.04330688 285.06473999 134.99872314 285.08065186 133.92248535 285.0970459 C132.80466675 285.09724731 131.68684814 285.09744873 130.53515625 285.09765625 C129.37769897 285.10526978 128.2202417 285.1128833 127.02770996 285.12072754 C124.58343664 285.13152067 122.13911723 285.13438487 119.69482422 285.12988281 C115.95462318 285.12890969 112.21646788 285.17056122 108.4765625 285.21484375 C106.10026469 285.22005019 103.72395976 285.22273895 101.34765625 285.22265625 C100.22983765 285.23905151 99.11201904 285.25544678 97.96032715 285.27233887 C90.2637832 285.20377608 90.2637832 285.20377608 86.33129883 282.45483398 C80.20374942 273.29240221 79.33854179 261.26334193 77.75390625 250.56640625 C77.50592003 248.94957267 77.257024 247.33287843 77.00732422 245.71630859 C75.58779446 236.47229405 74.23317574 227.21883988 72.88439941 217.96427917 C65.31834796 137.10153454 65.31834796 137.10153454 33.44140625 64.62890625 C31.46354688 63.58579921 29.46497756 62.58030477 27.44140625 61.62890625 C27.37113264 83.38741451 27.31832852 105.1459039 27.28596973 126.90450287 C27.27054151 137.00880237 27.24952987 147.1130311 27.21508789 157.21728516 C27.18506111 166.03049759 27.1658019 174.84365874 27.15914077 183.65692091 C27.15525087 188.31771671 27.14619472 192.97836587 27.12421608 197.63911438 C27.10364044 202.03857657 27.09761436 206.43783366 27.10208321 210.8373394 C27.10126732 212.43996234 27.09542851 214.04259315 27.08378983 215.64517403 C26.99464641 228.56902445 27.04833458 243.51398001 34.44140625 254.62890625 C35.03695313 255.58603516 35.03695313 255.58603516 35.64453125 256.5625 C39.31707087 261.97632995 44.00216828 265.75964499 49.1484375 269.74609375 C51.44140625 271.62890625 51.44140625 271.62890625 52.44140625 273.62890625 C52.90863938 280.98782804 52.90863938 280.98782804 51.27671814 283.22694397 C48.71975291 285.18016446 46.94722815 285.01616884 43.74829102 285.03295898 C42.58020401 285.04564316 41.412117 285.05832733 40.20863342 285.07139587 C38.94611252 285.06846024 37.68359161 285.0655246 36.3828125 285.0625 C34.43905983 285.07036278 34.43905983 285.07036278 32.45603943 285.0783844 C29.71302562 285.08731856 26.97030289 285.08488958 24.22729492 285.07495117 C20.71529371 285.06346541 17.20429856 285.08366341 13.69242954 285.11286831 C10.33917056 285.13564856 6.98614705 285.12876304 3.6328125 285.125 C2.37231583 285.13623398 1.11181915 285.14746796 -0.18687439 285.15904236 C-1.35811356 285.14966141 -2.52935272 285.14028046 -3.73608398 285.13061523 C-4.76628159 285.13044907 -5.79647919 285.1302829 -6.8578949 285.13011169 C-10.27076715 284.49673854 -11.45131679 283.33773463 -13.55859375 280.62890625 C-14.12109375 277.75390625 -14.12109375 277.75390625 -13.55859375 274.62890625 C-10.48426013 270.11347875 -6.59544418 266.88296694 -2.4765625 263.3359375 C5.43491829 256.29455847 9.97382923 247.05337972 11.44140625 236.62890625 C11.74179402 230.59393975 11.72553256 224.56514495 11.71606445 218.52392578 C11.72041649 216.68825067 11.72560128 214.85257737 11.73155212 213.01690674 C11.74490048 208.04989676 11.74552543 203.08296307 11.74298882 198.11593866 C11.74191628 193.9610489 11.74680973 189.80617439 11.75159425 185.65128791 C11.76267505 175.84482478 11.76313488 166.03839995 11.75708008 156.23193359 C11.75104089 146.13391243 11.76335322 136.03603062 11.78465015 125.93803322 C11.80229454 117.2506939 11.80826303 108.56339882 11.8050124 99.87604225 C11.80320393 94.69521726 11.80579218 89.51449169 11.81972694 84.33368301 C11.8323469 79.45968937 11.83032188 74.5859122 11.81731606 69.71192169 C11.81495978 67.92982025 11.81765068 66.14770338 11.82593918 64.36561966 C11.89613738 48.09086722 9.83959094 33.85239708 -2.05859375 21.75390625 C-4.61914651 19.31446071 -7.21960885 17.10584699 -10.05859375 15.00390625 C-12.55859375 12.62890625 -12.55859375 12.62890625 -13.68359375 9.12890625 C-13.55859375 5.62890625 -13.55859375 5.62890625 -12.14819336 2.94946289 C-8.31311256 -0.48717735 -4.99013586 -0.07342823 0 0 Z " fill="#FFFFFF" transform="translate(1165.55859375,54.37109375)"/>
<path d="M0 0 C21.47751884 16.85384215 33.19304764 42.61765741 37.75 69.125 C41.47519705 101.76847933 35.30118248 135.11653366 14.8203125 161.39453125 C2.92509918 175.58897909 -12.47361217 187.34313722 -31.3515625 189.796875 C-49.82455213 191.05555566 -65.40576013 187.31803412 -80.625 176.3125 C-81.285 175.6525 -81.945 174.9925 -82.625 174.3125 C-82.7017506 181.60409721 -82.75389068 188.89558831 -82.78979492 196.1875 C-82.80478012 198.6624745 -82.82517524 201.1374229 -82.85131836 203.61230469 C-83.04105108 222.04986041 -81.61988177 236.98952743 -74.96679688 254.27148438 C-73.17453432 259.1132683 -72.07260149 263.06138647 -72.625 268.3125 C-74.42062405 271.06579021 -75.67754922 272.83877461 -78.625 274.3125 C-80.59981685 274.41922993 -82.57824744 274.4613532 -84.5559082 274.47363281 C-85.80092606 274.48324036 -87.04594391 274.4928479 -88.32868958 274.50274658 C-89.69438494 274.5075949 -91.06008243 274.51187364 -92.42578125 274.515625 C-93.82342023 274.52137724 -95.22105919 274.52713496 -96.61869812 274.53289795 C-99.55171069 274.54340901 -102.48469585 274.54925068 -105.41772461 274.55273438 C-109.17045153 274.5582131 -112.92281451 274.58222693 -116.67542744 274.61070633 C-119.5639704 274.62936124 -122.45242629 274.63453986 -125.3410244 274.63607025 C-126.72408216 274.63909194 -128.10713857 274.64710418 -129.4901371 274.66025543 C-131.42865408 274.67737018 -133.36732122 274.67358302 -135.3059082 274.66894531 C-136.40796097 274.67259094 -137.51001373 274.67623657 -138.64546204 274.67999268 C-142.02997041 274.26255143 -143.89564836 273.32363122 -146.625 271.3125 C-149.29249586 267.06875659 -148.55220703 263.02500031 -147.625 258.3125 C-146.51460613 255.11762423 -145.29810185 252.03487194 -143.97265625 248.92773438 C-138.68690882 235.79305044 -138.17838982 222.44162164 -138.20507812 208.50146484 C-138.19771978 206.66142264 -138.1891285 204.82138503 -138.17941284 202.98135376 C-138.15736996 198.02640298 -138.15425757 193.07161933 -138.15616035 188.11662626 C-138.1562809 183.95739888 -138.14768262 179.79820585 -138.13938284 175.63898814 C-138.1202094 165.81187326 -138.11724222 155.98484329 -138.12402344 146.15771484 C-138.1306544 136.0744438 -138.10782373 125.99153946 -138.07070971 115.90834272 C-138.03985161 107.20372894 -138.02867018 98.49923211 -138.03254652 89.79456484 C-138.03459803 84.61678977 -138.0293857 79.43930007 -138.00465393 74.26157761 C-137.48639876 40.93197899 -137.48639876 40.93197899 -146.7755661 9.26929283 C-148.45646194 5.39710815 -148.81523643 1.49770136 -148.625 -2.6875 C-147.43173469 -5.70206499 -146.60148203 -7.06460349 -143.88986206 -8.79434204 C-141.01182385 -9.92930862 -138.66868215 -9.95607439 -135.57470703 -9.97802734 C-133.74227951 -9.9971669 -133.74227951 -9.9971669 -131.87283325 -10.01669312 C-130.5561264 -10.01891876 -129.23941956 -10.02114441 -127.8828125 -10.0234375 C-126.51284649 -10.02986821 -125.14288185 -10.03659677 -123.7729187 -10.04360962 C-120.90310483 -10.05557331 -118.03341126 -10.05929141 -115.16357422 -10.05810547 C-111.49603907 -10.05790237 -107.82927963 -10.0851977 -104.16192818 -10.11964989 C-101.33251441 -10.14194839 -98.50328642 -10.14594212 -95.67379379 -10.14488602 C-93.66749074 -10.14837716 -91.66124568 -10.17002229 -89.65505981 -10.19198608 C-82.93780382 -10.15832515 -78.80104837 -10.08486557 -73.625 -5.6875 C-71.07988396 -6.19048275 -71.07988396 -6.19048275 -68.625 -7.6875 C-66.29579618 -8.55286392 -63.96214253 -9.4063117 -61.625 -10.25 C-60.42875 -10.68441406 -59.2325 -11.11882813 -58 -11.56640625 C-37.90107384 -18.24278566 -16.47689458 -12.42171284 0 0 Z M-76.4375 18 C-83.76734279 26.98281417 -83.76658068 38.26436202 -83.88134766 49.33740234 C-83.89595032 50.42612137 -83.91055298 51.51484039 -83.92559814 52.6365509 C-84.05950989 63.29698626 -84.12771945 73.95820136 -84.18398631 84.61929262 C-84.2166265 90.65981789 -84.2711064 96.69927068 -84.35888672 102.73925781 C-84.45174517 109.23785169 -84.50036538 115.73538801 -84.51783371 122.2346077 C-84.53191198 124.70579333 -84.56151482 127.17694244 -84.60713577 129.64774704 C-85.60431413 144.50671758 -85.60431413 144.50671758 -79.39990234 157.20947266 C-77.12627667 158.9873502 -77.12627667 158.9873502 -74.625 160.3125 C-73.23748032 161.11619522 -73.23748032 161.11619522 -71.82192993 161.93612671 C-64.66990517 165.85887256 -57.57784977 167.68457245 -49.47265625 165.81640625 C-39.96885908 162.58766902 -35.19372353 155.93545116 -30.625 147.3125 C-15.27461996 114.43148963 -16.16184449 69.27209821 -27.625 35.3125 C-31.36181649 25.55767091 -37.01992717 17.12394952 -45.75 11.1875 C-57.65546804 8.49916851 -67.84229816 9.08448008 -76.4375 18 Z " fill="#FFFFFF" transform="translate(717.625,64.6875)"/>
<path d="M0 0 C7.33432112 5.64262503 12.79974946 11.49961611 17.0625 19.70703125 C17.38049561 20.30507568 17.69849121 20.90312012 18.02612305 21.51928711 C25.00740714 36.03592547 24.61702886 53.61549139 25.625 69.33203125 C25.79402465 71.8481126 25.96379464 74.36414398 26.13427734 76.88012695 C26.97292046 89.37888853 27.74629804 101.88118556 28.4765625 114.38671875 C28.54309021 115.52104843 28.60961792 116.65537811 28.67816162 117.82408142 C28.99115487 123.18274414 29.29626413 128.5416363 29.5859375 133.90161133 C30.20098648 155.34872314 30.20098648 155.34872314 38.44140625 174.62890625 C44.71245121 183.80110131 44.71245121 183.80110131 44.1953125 190.07421875 C43.23615659 193.34586015 41.27048241 195.00392561 38.625 197.01953125 C36.00147331 198.33129459 34.01526988 198.1755597 31.07714844 198.21240234 C29.91544128 198.22846527 28.75373413 198.2445282 27.55682373 198.26107788 C22.23660746 198.30546469 16.91653977 198.34704 11.59619141 198.36962891 C8.78889267 198.38295328 5.98232343 198.41077591 3.17529297 198.45166016 C-0.86763748 198.51054246 -4.90978798 198.52829963 -8.953125 198.54296875 C-10.20643616 198.56563812 -11.45974731 198.5883075 -12.7510376 198.61166382 C-22.46538905 198.58808732 -22.46538905 198.58808732 -26.08886719 195.79931641 C-33.10899912 187.26330378 -31.6337202 175.12063348 -30.6875 164.70703125 C-30.59791016 163.65016113 -30.50832031 162.59329102 -30.41601562 161.50439453 C-29.57191579 152.10357299 -28.35755281 142.75500113 -27.10888672 133.40103149 C-25.49375314 121.29254905 -24.21962066 109.20554318 -23.375 97.01953125 C-23.31715332 96.22691895 -23.25930664 95.43430664 -23.19970703 94.61767578 C-22.36917298 82.7856461 -22.22681954 70.92541122 -22.14483643 59.06814575 C-22.13179104 57.39205473 -22.11398273 55.71599281 -22.09100342 54.04000854 C-21.92202084 40.75487842 -21.8609903 27.7357825 -30.9375 17.20703125 C-34.40151112 14.34545685 -38.86129482 14.50374309 -43.140625 14.5546875 C-57.96992828 16.6859521 -68.66751582 28.35901843 -77.24121094 39.67822266 C-81.12944977 44.92212491 -81.51990796 48.1167269 -81.50439453 54.5456543 C-81.50614685 55.42893402 -81.50789917 56.31221375 -81.50970459 57.22225952 C-81.514124 60.15860939 -81.51118154 63.09489946 -81.5078125 66.03125 C-81.50848629 68.0775402 -81.50945695 70.12383032 -81.51071167 72.17012024 C-81.51218939 76.47352861 -81.51003458 80.77691629 -81.50537109 85.08032227 C-81.4997204 90.55826597 -81.50292244 96.03616017 -81.50894356 101.51410198 C-81.51258724 105.74984599 -81.51139245 109.98557863 -81.50881577 114.22132301 C-81.50815454 116.23804544 -81.50894639 118.25476893 -81.51129532 120.2714901 C-81.97240843 141.13388692 -81.97240843 141.13388692 -78.625 161.58203125 C-78.27308594 162.80921875 -77.92117188 164.03640625 -77.55859375 165.30078125 C-75.99157034 170.22423435 -74.26333725 175.06845285 -72.42578125 179.8984375 C-70.78483787 184.77246635 -69.97656207 187.82421746 -71.625 192.76953125 C-73.375 196.01953125 -73.375 196.01953125 -76.375 198.01953125 C-79.13853455 198.27349854 -79.13853455 198.27349854 -82.52709961 198.27832031 C-84.42938576 198.28777679 -84.42938576 198.28777679 -86.37010193 198.29742432 C-87.75585061 198.29384414 -89.14159803 198.28974208 -90.52734375 198.28515625 C-91.94837002 198.28650364 -93.36939584 198.2884448 -94.79042053 198.29095459 C-97.76877226 198.29390332 -100.74700401 198.289617 -103.7253418 198.28027344 C-107.53973177 198.26888932 -111.35383997 198.2754332 -115.16821957 198.28741837 C-118.10305394 198.29465265 -121.03782176 198.29234167 -123.97265816 198.28716278 C-125.37885128 198.28583008 -126.78505047 198.2874607 -128.1912365 198.29212189 C-130.15865841 198.29721143 -132.12610155 198.28807626 -134.09350586 198.27832031 C-135.21252792 198.27672913 -136.33154999 198.27513794 -137.48448181 198.27349854 C-140.34551133 198.02212219 -141.98066842 197.56134701 -144.375 196.01953125 C-147.08574685 192.49556034 -146.76364805 188.26662305 -146.375 184.01953125 C-145.203125 180.44140625 -145.203125 180.44140625 -143.625 176.76953125 C-136.89096372 160.11102095 -135.74550295 143.16402143 -135.7734375 125.375 C-135.76563334 123.26475192 -135.75695799 121.15450691 -135.74746704 119.04426575 C-135.73268736 114.66002118 -135.7330224 110.27609923 -135.74365234 105.8918457 C-135.7552855 100.313034 -135.72120665 94.73554092 -135.674963 89.15694714 C-135.64532482 84.81307957 -135.64376578 80.4695249 -135.64998245 76.12557411 C-135.64896627 74.06974976 -135.63868655 72.01390548 -135.61835861 69.95818138 C-135.51967696 58.59761529 -136.00805275 49.46368386 -141.18569946 39.21162415 C-142.63210097 35.32947003 -142.35621404 33.00797247 -141.375 29.01953125 C-139.4765625 26.46484375 -139.4765625 26.46484375 -137 24.14453125 C-136.09121094 23.28988281 -135.18242188 22.43523437 -134.24609375 21.5546875 C-130.67221114 18.39897347 -127.03291288 15.35342027 -123.30078125 12.38671875 C-121.18795341 10.6772746 -119.13893143 8.95096927 -117.10546875 7.15234375 C-102.2991257 -5.90433528 -102.2991257 -5.90433528 -91.38671875 -5.37109375 C-88.20893607 -4.75404857 -86.52944348 -3.33077072 -84.375 -0.98046875 C-81.96831265 2.67700593 -81.94275503 6.52088914 -81.75 10.76953125 C-81.71132812 11.46691406 -81.67265625 12.16429687 -81.6328125 12.8828125 C-81.53901376 14.59463943 -81.45593826 16.30704807 -81.375 18.01953125 C-80.97821045 17.60179443 -80.5814209 17.18405762 -80.17260742 16.75366211 C-58.4849138 -5.92282262 -29.12277669 -20.10656821 0 0 Z " fill="#FFFFFF" transform="translate(1661.375,140.98046875)"/>
<path d="M0 0 C0.68716095 -0.0080365 1.3743219 -0.016073 2.08230591 -0.02435303 C21.13351652 -0.19339862 39.98497155 2.67138591 54.25 16.375 C66.89122515 30.18310747 69.59744929 48.63884225 70.75 66.625 C70.86433128 68.23711903 70.97952219 69.84917727 71.09545898 71.46118164 C71.91411581 83.12791225 72.575585 94.80491704 73.25390625 106.48046875 C73.31940485 107.60519907 73.31940485 107.60519907 73.38622665 108.75265121 C73.82865401 116.35353264 74.26760321 123.95452596 74.68336582 131.55691814 C74.8424946 134.45263653 75.00585959 137.34810804 75.16984367 140.24355507 C75.28053353 142.22580916 75.38545639 144.20838273 75.49012756 146.19096375 C75.89215082 164.606506 75.89215082 164.606506 82.25 181.375 C82.76433594 182.16777344 83.27867187 182.96054687 83.80859375 183.77734375 C84.85061836 185.35912211 85.90668099 186.93179719 86.98046875 188.4921875 C89.94182111 192.88410085 89.86938882 197.19389622 89.25 202.375 C87.05873184 205.47299981 85.83943664 206.17852112 82.25 207.375 C80.39027433 207.47827446 78.52709909 207.52352403 76.66455078 207.53613281 C75.51971222 207.54574036 74.37487366 207.5553479 73.19534302 207.56524658 C71.95783295 207.56949646 70.72032288 207.57374634 69.4453125 207.578125 C68.1740451 207.58382507 66.90277771 207.58952515 65.59298706 207.59539795 C62.90131042 207.60485134 60.20974537 207.61174656 57.51806641 207.61523438 C54.07587201 207.62071719 50.63407355 207.64474499 47.19200325 207.67320633 C43.90146977 207.69635463 40.61091601 207.6982837 37.3203125 207.703125 C35.47012009 207.7216452 35.47012009 207.7216452 33.58255005 207.74053955 C32.43140717 207.73753845 31.28026428 207.73453735 30.09423828 207.73144531 C28.57892014 207.73691376 28.57892014 207.73691376 27.0329895 207.74249268 C23.74364194 207.30813562 21.89873193 206.3508606 19.25 204.375 C17.4375 201.1875 17.4375 201.1875 16.25 198.375 C15.3528125 198.89449219 14.455625 199.41398438 13.53125 199.94921875 C-2.92986154 209.25002577 -20.65558579 215.20262438 -39.75 211.28515625 C-54.84401043 206.70585361 -67.59510114 196.64500554 -75.18359375 182.75 C-76.50240058 179.99498513 -77.6553198 177.2259803 -78.75 174.375 C-79.07097656 173.59253906 -79.39195312 172.81007813 -79.72265625 172.00390625 C-85.07308014 156.45034842 -82.8939476 136.40060349 -75.8125 121.875 C-60.93379758 96.12459435 -33.07809999 86.2106844 -6.95678711 75.35546875 C3.47479506 70.96685331 12.8689247 65.6891853 22.25 59.375 C20.82271117 44.91431052 19.22399038 28.99553014 8.9375 17.875 C5.36553513 15.88134519 2.34678044 15.07483985 -1.75 15.375 C-10.06432906 19.01251896 -15.00635191 28.26975053 -19.98291016 35.49243164 C-38.27158934 61.95421383 -38.27158934 61.95421383 -52.125 65.75 C-59.03562384 66.98914634 -66.19209825 66.62278198 -72.21484375 62.75 C-76.62502341 58.79991542 -79.52200954 53.24917482 -79.98828125 47.37109375 C-80.21320459 36.58661163 -78.68317373 29.55512346 -71.75 21.1875 C-53.56579123 2.35490777 -24.63922644 0.16030817 0 0 Z M19.96875 81.75390625 C18.95941406 82.5123584 18.95941406 82.5123584 17.9296875 83.28613281 C17.21039062 83.83108398 16.49109375 84.37603516 15.75 84.9375 C15.02039063 85.48889648 14.29078125 86.04029297 13.5390625 86.60839844 C12.09023369 87.7046875 10.64229727 88.80215706 9.1953125 89.90087891 C7.62512856 91.09073466 6.04800612 92.27143083 4.46875 93.44921875 C-10.38226161 104.6659159 -19.4662594 118.90820827 -22.75 137.375 C-23.83086769 152.47434895 -24.09027335 167.47851181 -14.3125 179.88671875 C-9.86075549 184.1270054 -5.04307076 183.85339184 0.83984375 183.75390625 C5.8714606 183.19483771 10.39469973 181.73763512 14.25 178.375 C16.60392127 172.87582502 17.03655909 167.10200049 17.6875 161.21484375 C17.81264984 160.12433212 17.93779968 159.0338205 18.06674194 157.91026306 C18.46894033 154.37850256 18.8603326 150.84566355 19.25 147.3125 C19.38384094 146.11570618 19.51768188 144.91891235 19.65557861 143.68585205 C23.26446216 111.6118706 23.26446216 111.6118706 24.25 79.375 C22.49818146 79.375 21.32877838 80.72865686 19.96875 81.75390625 Z " fill="#FFFFFF" transform="translate(848.75,131.625)"/>
<path d="M0 0 C0.6461879 -0.00540298 1.29237579 -0.01080597 1.95814514 -0.01637268 C4.0825966 -0.02882467 6.20568328 -0.01239493 8.33007812 0.00561523 C9.81311107 0.00546016 11.29614443 0.00396981 12.7791748 0.00120544 C15.88275129 -0.00017695 18.98586474 0.01235204 22.08935547 0.03515625 C26.06066979 0.06354095 30.03121514 0.0608017 34.00258636 0.04806614 C37.063604 0.04109965 40.12444499 0.04890921 43.18544006 0.06132317 C44.64941225 0.06582828 46.11340346 0.06618269 47.57737732 0.06225777 C49.62619675 0.05933586 51.67396938 0.07589686 53.72265625 0.09765625 C54.88671997 0.10305923 56.05078369 0.10846222 57.25012207 0.11402893 C60.72399105 0.54689956 62.57860702 1.40876995 65.36132812 3.50170898 C67.59309867 6.8493648 67.60766136 7.97232184 67.54882812 11.87670898 C67.54238281 12.81256836 67.5359375 13.74842773 67.52929688 14.71264648 C67.36132812 17.50170898 67.36132812 17.50170898 66.84960938 19.91577148 C65.43387354 27.41350845 67.24112514 32.4666476 70.30664062 39.18139648 C70.71383331 40.10089081 71.121026 41.02038513 71.54055786 41.96774292 C72.38907697 43.88114645 73.24300316 45.79216081 74.10217285 47.70080566 C75.27509433 50.3098879 76.43122861 52.92547297 77.57910156 55.5456543 C79.40190247 59.70559378 81.23732753 63.85978299 83.07772827 68.01196289 C84.27653631 70.71745143 85.47308947 73.42392846 86.66918945 76.13061523 C90.58533189 84.98963848 94.51109675 93.84424834 98.45678711 102.69015503 C100.23048382 106.66821135 102.00013138 110.64806237 103.76934814 114.62811279 C104.61962695 116.53776202 105.47195043 118.44650221 106.32635498 120.35430908 C107.51354704 123.00543079 108.69400289 125.65945576 109.87304688 128.31420898 C110.22832962 129.1027829 110.58361237 129.89135681 110.94966125 130.7038269 C113.36132812 136.16012494 113.36132812 136.16012494 113.36132812 139.50170898 C114.02132813 139.50170898 114.68132812 139.50170898 115.36132812 139.50170898 C115.52282852 138.87002304 115.68432892 138.2383371 115.85072327 137.58750916 C117.91188626 129.76102778 120.44916259 122.1471525 123.10742188 114.50561523 C123.5647066 113.18256327 124.02165462 111.85939489 124.47828674 110.53611755 C125.67208784 107.07919489 126.87000382 103.62371331 128.06896973 100.1685791 C129.51692214 95.99375862 130.96045497 91.81740852 132.40412235 87.6411047 C133.5290995 84.38675105 134.65507965 81.13276017 135.78330994 77.87953186 C136.98105644 74.42197612 138.17347123 70.96267408 139.36132812 67.50170898 C139.74322296 66.38956024 140.1251178 65.2774115 140.51858521 64.13156128 C140.87669281 63.07542633 141.23480042 62.01929138 141.60375977 60.93115234 C142.07719566 59.53877602 142.07719566 59.53877602 142.56019592 58.11827087 C145.5008377 48.51389948 144.41332369 40.63061663 140.36132812 31.50170898 C137.78434513 27.43211702 134.74869866 23.89447785 131.35351562 20.48608398 C127.97586163 17.012707 125.9072742 14.73356591 125.73632812 9.75170898 C126.03357501 6.23327648 126.63760375 3.92279731 129.36132812 1.50170898 C132.44250915 0.47464864 134.60889444 0.3568974 137.83911133 0.32470703 C139.52149651 0.30545418 139.52149651 0.30545418 141.23786926 0.28581238 C143.05661812 0.27473198 143.05661812 0.27473198 144.91210938 0.26342773 C146.78215889 0.25132011 146.78215889 0.25132011 148.68998718 0.2389679 C151.33039058 0.22512791 153.97066916 0.21411122 156.61108398 0.20654297 C159.31443815 0.19768138 162.01727855 0.17680339 164.72045898 0.14501953 C168.61783395 0.10242137 172.51453073 0.08618382 176.41210938 0.07592773 C177.61853592 0.05841965 178.82496246 0.04091156 180.06794739 0.02287292 C186.41744445 0.03929655 190.60653206 0.07355077 195.36132812 4.50170898 C196.94496392 7.66898056 196.74653731 10.00547705 196.36132812 13.50170898 C194.5214429 15.72830243 192.99400898 17.28042177 190.79882812 19.06420898 C190.24598145 19.54325684 189.69313477 20.02230469 189.12353516 20.51586914 C186.90849618 22.42551993 184.65279939 24.27160009 182.35742188 26.08374023 C167.93574011 37.5863346 159.91472911 55.77662184 153.79882812 72.68920898 C153.54242554 73.38680328 153.28602295 74.08439758 153.02185059 74.8031311 C145.89927884 94.19391205 139.44121476 113.82641882 132.85114765 133.4027071 C100.64172981 229.07687574 100.64172981 229.07687574 85.36132812 257.50170898 C84.72177571 258.76199374 84.08513269 260.02375849 83.45117188 261.28686523 C76.00273506 275.95678848 66.48084044 291.49718981 52.36132812 300.50170898 C51.719375 300.91678711 51.07742188 301.33186523 50.41601562 301.75952148 C41.47604037 306.62042058 30.04052336 305.56922801 20.54882812 302.87670898 C8.78667609 298.70398014 -2.23751268 292.63291186 -8.13867188 281.12670898 C-10.33834334 275.81083627 -10.88246762 271.44958199 -10.95117188 265.75170898 C-10.98017578 264.96538086 -11.00917969 264.17905273 -11.0390625 263.36889648 C-11.10177026 257.56119352 -10.04969328 254.23658835 -6.63867188 249.50170898 C-4.60351562 247.75952148 -4.60351562 247.75952148 -2.57617188 246.62670898 C-1.90457031 246.23741211 -1.23296875 245.84811523 -0.54101562 245.44702148 C5.77804848 242.30695267 14.19662795 242.33177794 20.91992188 244.22045898 C26.10620534 246.65183573 29.33184818 249.86424838 31.44140625 255.26879883 C32.38961807 258.60112923 32.64493429 261.39655626 32.70507812 264.85327148 C32.73472656 266.03405273 32.764375 267.21483398 32.79492188 268.43139648 C32.83933306 270.90274813 32.88360301 273.37410232 32.92773438 275.84545898 C32.95738281 277.02366211 32.98703125 278.20186523 33.01757812 279.41577148 C33.04561523 281.02379639 33.04561523 281.02379639 33.07421875 282.66430664 C33.3560433 285.44948092 33.92702444 287.1276644 35.36132812 289.50170898 C42.93730524 289.17932698 48.15802328 285.7972395 53.39648438 280.40795898 C63.35025991 268.53466809 70.35681225 254.40842337 76.63085938 240.34155273 C78.3219366 236.56631048 80.1670894 233.14888379 82.43554688 229.69311523 C85.86322221 223.9769608 88.45732895 218.380545 86.93103027 211.58624268 C83.94131696 201.67657521 78.93804186 192.41147631 74.24510193 183.22799683 C69.98691176 174.88185106 66.23239027 166.34982096 62.52780151 157.74676514 C60.66846877 153.43928098 58.77833518 149.14532888 56.89257812 144.84936523 C56.13588874 143.12174179 55.37937816 141.39404001 54.62304688 139.66625977 C48.27972021 125.17948242 41.92162115 110.69917665 35.55700684 96.22174072 C34.73759544 94.35767392 33.91834919 92.49353451 33.09924316 90.6293335 C30.50405705 84.72310266 27.90607795 78.81811378 25.30441284 72.91473389 C24.47813355 71.03885115 23.65269153 69.16259935 22.82815552 67.28594971 C20.36445877 61.67970183 17.88291679 56.08217854 15.36132812 50.50170898 C14.64468994 48.91495361 14.64468994 48.91495361 13.91357422 47.29614258 C11.45057189 42.09279471 8.66785396 38.0754067 4.61132812 34.00170898 C3.55628057 32.89788635 2.50159696 31.79371574 1.44726562 30.68920898 C0.66947754 29.88676758 0.66947754 29.88676758 -0.12402344 29.06811523 C-2.37161189 26.74372331 -4.57503096 24.38159036 -6.76367188 22.00170898 C-7.4675 21.24889648 -8.17132812 20.49608398 -8.89648438 19.72045898 C-11.66750706 16.19144355 -13.06873779 12.94394815 -12.57617188 8.43920898 C-12.52332031 7.78823242 -12.47046875 7.13725586 -12.41601562 6.46655273 C-10.20902268 0.88807309 -5.43183773 0.00077539 0 0 Z " fill="#FFFFFF" transform="translate(945.638671875,135.498291015625)"/>
<path d="M0 0 C4.17233163 3.04085187 5.07524922 6.26553303 6.17578125 11.11328125 C6.41629028 14.5745697 6.41629028 14.5745697 6.40283203 18.24194336 C6.40312408 18.91596191 6.40341614 19.58998047 6.40371704 20.28442383 C6.40233658 22.4866272 6.38683693 24.68848158 6.37109375 26.890625 C6.36735904 28.42761551 6.36451423 29.96460842 6.36251831 31.50160217 C6.3549179 35.52770677 6.33530069 39.55366482 6.31311035 43.57971191 C6.29257413 47.69569924 6.28350003 51.81171047 6.2734375 55.92773438 C6.25205105 63.98965024 6.21795901 72.05144746 6.17578125 80.11328125 C7.09915283 80.09233398 8.02252441 80.07138672 8.97387695 80.04980469 C12.40122448 79.98161594 15.82785105 79.93147663 19.25561523 79.89355469 C20.73880386 79.87344366 22.22191324 79.84615051 23.70483398 79.81152344 C25.8372756 79.76297773 27.96866902 79.7403093 30.1015625 79.72265625 C32.02609253 79.69123535 32.02609253 79.69123535 33.98950195 79.65917969 C37.17578125 80.11328125 37.17578125 80.11328125 39.09448242 81.95019531 C40.5628325 84.88755853 40.5813783 86.86850484 40.17578125 90.11328125 C39.09448242 92.27636719 39.09448242 92.27636719 37.17578125 94.11328125 C33.98950195 94.56738281 33.98950195 94.56738281 30.1015625 94.50390625 C29.41772995 94.49824646 28.7338974 94.49258667 28.02934265 94.48675537 C25.84827226 94.46438941 23.66885372 94.4141989 21.48828125 94.36328125 C20.0084873 94.34321625 18.52866755 94.32496547 17.04882812 94.30859375 C13.42394365 94.26452599 9.80002369 94.19549947 6.17578125 94.11328125 C6.26012057 111.23937466 6.35541004 128.36536884 6.46330833 145.49132919 C6.51317287 153.44537231 6.55961582 161.39940644 6.59765625 169.35351562 C6.63086812 176.2960954 6.67085373 183.23859961 6.71857131 190.18109536 C6.74355037 193.84820152 6.76541124 197.51525943 6.77912521 201.18242645 C6.86656411 223.6403914 7.00503295 245.60103636 14.17578125 267.11328125 C18.04510145 267.5632022 19.65294709 267.52150011 22.77734375 265.08203125 C25.60401917 261.58321477 26.2896701 258.63176774 26.86328125 254.30078125 C26.97937744 253.56102051 27.09547363 252.82125977 27.21508789 252.05908203 C27.79230989 248.27805732 28.25562849 244.49057085 28.66015625 240.6875 C28.77677612 239.62849487 28.77677612 239.62849487 28.89575195 238.5480957 C29.10143362 236.60046804 29.27817176 234.64984681 29.453125 232.69921875 C30.58076663 227.10367811 32.69455696 223.29221487 37.23828125 219.67578125 C41.9896228 217.31035044 47.00884894 217.34723077 52.17578125 218.11328125 C57.26805885 220.56511861 61.70199326 224.71223205 63.98828125 229.98828125 C64.05015625 230.68953125 64.11203125 231.39078125 64.17578125 232.11328125 C64.27890625 233.24765625 64.38203125 234.38203125 64.48828125 235.55078125 C64.26223071 247.7123001 58.07262509 258.98272462 50.05078125 267.80078125 C34.98706448 281.88060661 18.41565771 283.78407986 -1.18994141 283.24511719 C-14.40115365 282.58394438 -25.84898186 276.8235591 -34.82421875 267.11328125 C-49.687071 247.64019242 -48.27127663 219.90532795 -48.12840056 196.73408532 C-48.10936238 193.11336546 -48.10786235 189.49263414 -48.10432434 185.87187195 C-48.09508215 179.04777696 -48.07057713 172.22382998 -48.04027587 165.39979953 C-48.00648469 157.6171822 -47.9901844 149.83455698 -47.97518957 142.05188429 C-47.94401836 126.07226489 -47.89141421 110.09279232 -47.82421875 94.11328125 C-49.20927612 94.14470215 -49.20927612 94.14470215 -50.62231445 94.17675781 C-54.04966198 94.24494656 -57.47628855 94.29508587 -60.90405273 94.33300781 C-62.38724136 94.35311884 -63.87035074 94.38041199 -65.35327148 94.41503906 C-67.4857131 94.46358477 -69.61710652 94.4862532 -71.75 94.50390625 C-73.67453003 94.53532715 -73.67453003 94.53532715 -75.63793945 94.56738281 C-78.82421875 94.11328125 -78.82421875 94.11328125 -80.74291992 92.27636719 C-82.21127 89.33900397 -82.2298158 87.35805766 -81.82421875 84.11328125 C-80.74291992 81.95019531 -80.74291992 81.95019531 -78.82421875 80.11328125 C-75.63793945 79.65917969 -75.63793945 79.65917969 -71.75 79.72265625 C-70.72425117 79.73114594 -70.72425117 79.73114594 -69.67778015 79.73980713 C-67.49670976 79.76217309 -65.31729122 79.8123636 -63.13671875 79.86328125 C-61.6569248 79.88334625 -60.17710505 79.90159703 -58.69726562 79.91796875 C-55.07238115 79.96203651 -51.44846119 80.03106303 -47.82421875 80.11328125 C-47.8178989 76.92401301 -47.87791973 73.73918417 -47.94921875 70.55078125 C-47.94664063 69.65552734 -47.9440625 68.76027344 -47.94140625 67.83789062 C-48.11423841 61.93999321 -49.10039869 58.77878537 -53.359375 54.61938477 C-56.68721109 51.19781463 -57.69577641 47.15916884 -58.26171875 42.55078125 C-56.95241281 32.26337744 -45.46879679 24.6736515 -37.8828125 18.61328125 C-35.65931776 16.79586537 -33.50099078 14.95970281 -31.359375 13.05078125 C-10.79054255 -5.24508171 -10.79054255 -5.24508171 0 0 Z " fill="#FFFFFF" transform="translate(1781.82421875,55.88671875)"/>
<path d="M0 0 C0.66 0.33 1.32 0.66 2 1 C1.45472656 1.53625 0.90945313 2.0725 0.34765625 2.625 C-13.61588351 17.13753363 -21.56282843 36.60870693 -26 56 C-26.226875 56.91394531 -26.45375 57.82789063 -26.6875 58.76953125 C-28.60361886 67.85778947 -31.25202849 85.49594303 -27 94 C-8.63226885 84.55710772 9.58298308 74.88868818 27.64471436 64.87026978 C30.29580964 63.40013318 32.94790233 61.93179958 35.59991455 60.46331787 C37.52424856 59.39621168 39.44652149 58.32546274 41.36865234 57.25439453 C42.55949699 56.5939433 43.75041167 55.93361832 44.94140625 55.2734375 C45.99013916 54.68997559 47.03887207 54.10651367 48.11938477 53.50537109 C50.70593758 52.1536731 53.26978999 51.02371092 56 50 C53.06405924 53.12331355 50.00581219 55.49707765 46.44140625 57.87109375 C45.34417236 58.60360352 44.24693848 59.33611328 43.11645508 60.09082031 C41.93210724 60.87350686 40.74744809 61.65572251 39.5625 62.4375 C38.95908783 62.83739136 38.35567566 63.23728271 37.73397827 63.64929199 C15.43449361 78.42406735 -7.45087008 92.30272637 -31 105 C-31 105.66 -31 106.32 -31 107 C-28.86726304 108.64858116 -26.7492579 110.14914974 -24.5 111.625 C-23.82437012 112.0694043 -23.14874023 112.51380859 -22.45263672 112.97167969 C6.08472664 131.3646193 40.28316404 139.75940674 74 133.4375 C74.66 133.293125 75.32 133.14875 76 133 C67.11096861 141.88903139 47.05187434 141.29493719 35.375 141.3125 C7.83239406 141.08315061 -20.51446782 133.62407049 -41.01171875 114.08203125 C-43.0618149 112.66897514 -43.0618149 112.66897514 -45.8059082 113.765625 C-48.7295817 114.8954953 -51.35734222 116.14782878 -54.09375 117.66796875 C-55.10276367 118.220896 -56.11177734 118.77382324 -57.15136719 119.34350586 C-58.80894043 120.25628296 -58.80894043 120.25628296 -60.5 121.1875 C-74.08478865 128.59953044 -87.89939923 135.53793679 -101.75 142.4375 C-102.8011499 142.96121185 -103.8522998 143.48492371 -104.93530273 144.02450562 C-110.95417371 147.021775 -116.97561533 150.01382876 -123 153 C-122.05460778 154.11702224 -121.10719105 155.23233124 -120.15893555 156.34692383 C-119.63156296 156.96819656 -119.10419037 157.5894693 -118.56083679 158.22956848 C-95.95675682 183.86900486 -58.59904724 196.42709177 -26 202 C-24.91074219 202.18820312 -23.82148438 202.37640625 -22.69921875 202.5703125 C-17.3309263 203.1938734 -11.96113228 203.3670599 -6.5625 203.5625 C-5.44939453 203.60568359 -4.33628906 203.64886719 -3.18945312 203.69335938 C-0.45974156 203.79879888 2.27005143 203.90092029 5 204 C-3.07905858 209.38603905 -14.59407555 208.29056228 -23.97290039 208.20581055 C-26.06343817 208.18749178 -28.15353056 208.18530227 -30.24414062 208.18554688 C-41.47705199 208.15823316 -52.05659262 207.55616152 -62.9375 204.6875 C-63.80793945 204.46167236 -64.67837891 204.23584473 -65.57519531 204.00317383 C-89.32336169 197.75237715 -112.20704719 186.49135956 -129.91015625 169.17578125 C-130.39581055 168.70906006 -130.88146484 168.24233887 -131.38183594 167.76147461 C-132.73604768 166.44909091 -134.06610329 165.11191408 -135.39453125 163.7734375 C-137.85949042 161.69920328 -137.85949042 161.69920328 -140.77368164 162.21142578 C-144.223591 163.05464994 -147.04633921 164.26600994 -150.2265625 165.84375 C-150.80820663 166.12906082 -151.38985077 166.41437164 -151.98912048 166.70832825 C-153.2300401 167.3177247 -154.46932106 167.9304677 -155.70706177 168.54629517 C-158.94363281 170.15569707 -162.1931258 171.73862045 -165.44140625 173.32421875 C-166.086436 173.63981247 -166.73146576 173.95540619 -167.39604187 174.28056335 C-173.07535907 177.05315936 -178.79889851 179.71937045 -184.5625 182.3125 C-185.36961426 182.67859375 -186.17672852 183.0446875 -187.00830078 183.421875 C-187.74935059 183.75316406 -188.49040039 184.08445312 -189.25390625 184.42578125 C-190.20245483 184.84984253 -190.20245483 184.84984253 -191.17016602 185.2824707 C-193.08995492 186.03527385 -194.99103014 186.54310032 -197 187 C-194.70255977 189.69949227 -192.36350269 192.35816978 -190 195 C-189.45601563 195.61230469 -188.91203125 196.22460938 -188.3515625 196.85546875 C-160.4042605 226.50995888 -118.76030735 242.35837423 -78.6875 243.75 C-74.79183536 243.85974085 -70.89683191 243.94625698 -67 244 C-67 244.33 -67 244.66 -67 245 C-88.79780454 248.91242646 -109.5988331 247.4139507 -131 242 C-131.70882324 241.8237207 -132.41764648 241.64744141 -133.14794922 241.46582031 C-160.84770012 234.25481735 -185.34111598 217.21844807 -206 198 C-206.58910156 197.45988281 -207.17820312 196.91976562 -207.78515625 196.36328125 C-209 195 -209 195 -209 193 C-231.77955443 202.85817276 -254.11076163 213.20035591 -275.875 225.15234375 C-277.2053125 225.8791333 -277.2053125 225.8791333 -278.5625 226.62060547 C-280.08728045 227.48348703 -281.59217658 228.38370912 -283.0625 229.33642578 C-285.77977839 231.08669858 -287.44819553 232.04037594 -290.72265625 231.80078125 C-294.28759294 228.98185189 -295.12438066 225.43425492 -296.4375 221.1875 C-296.71787109 220.37990234 -296.99824219 219.57230469 -297.28710938 218.74023438 C-299.18854433 212.86263416 -299.18854433 212.86263416 -298.42236328 209.35717773 C-296.46000815 206.10511134 -294.82309135 205.87770279 -291.18359375 204.9296875 C-289.9608374 204.59646484 -288.73808105 204.26324219 -287.47827148 203.91992188 C-286.49272781 203.66553345 -286.49272781 203.66553345 -285.48727417 203.40600586 C-281.95789599 202.49170002 -278.44912055 201.50333775 -274.9375 200.5234375 C-274.20458237 200.32059143 -273.47166473 200.11774536 -272.71653748 199.90875244 C-264.71191877 197.67682271 -256.81773636 195.13399085 -248.9375 192.5 C-248.24938232 192.27055695 -247.56126465 192.04111389 -246.85229492 191.80471802 C-234.68115026 187.72738456 -222.78058009 183.10281811 -211 178 C-211.10828125 176.75863281 -211.10828125 176.75863281 -211.21875 175.4921875 C-212.72685168 156.09632424 -212.25555802 138.04084513 -208 119 C-207.7836792 117.96286865 -207.7836792 117.96286865 -207.56298828 116.90478516 C-201.14583184 86.37467726 -181.37401228 58.10395557 -157 39 C-156.34 39.33 -155.68 39.66 -155 40 C-155.94875 40.86625 -156.8975 41.7325 -157.875 42.625 C-176.49337772 61.35598887 -187.40467042 87.62711935 -193 113 C-193.34028786 114.35373957 -193.684121 115.70659223 -194.03125 117.05859375 C-196.77010636 127.97463006 -197.17997326 138.73395413 -197.1875 149.9375 C-197.18830566 151.09870361 -197.18911133 152.25990723 -197.18994141 153.45629883 C-197.15139016 159.3927619 -196.90023181 165.13048858 -196 171 C-189.43205552 169.16492098 -183.210789 166.97359102 -176.984375 164.19921875 C-176.16608215 163.84036087 -175.34778931 163.48150299 -174.50469971 163.11177063 C-171.91737064 161.97577502 -169.33361202 160.83192037 -166.75 159.6875 C-165.03539789 158.93239377 -163.3205556 158.17783269 -161.60546875 157.42382812 C-159.09422418 156.3197153 -156.58315914 155.21521895 -154.07312012 154.10836792 C-147.07006642 151.02170681 -140.04273482 147.99497744 -133 145 C-133.00169189 144.16698364 -133.00169189 144.16698364 -133.00341797 143.31713867 C-132.90679072 122.67461736 -130.09938931 100.78058101 -121 82 C-120.48977295 80.94256592 -120.48977295 80.94256592 -119.96923828 79.86376953 C-107.97895753 55.31949725 -92.20366122 36.94040085 -70 21 C-69.34 21.33 -68.68 21.66 -68 22 C-68.89460937 22.84820312 -69.78921875 23.69640625 -70.7109375 24.5703125 C-102.63065621 55.32947524 -115.58317917 94.55351742 -118 138 C-100.27784256 129.71819249 -82.59184454 121.36819477 -65 112.8125 C-64.26582855 112.45560089 -63.5316571 112.09870178 -62.77523804 111.73098755 C-54.82775713 107.86534837 -46.89201501 103.97802139 -39 100 C-39.02094727 99.15518066 -39.04189453 98.31036133 -39.06347656 97.43994141 C-39.77030066 64.56367368 -34.67011603 36.20175038 -11.28515625 11.33203125 C-7.55327803 7.52360168 -3.81077315 3.72969287 0 0 Z " fill="#41894A" transform="translate(364,85)"/>
<path d="M0 0 C3.36952887 1.90451632 4.67280194 3.18586116 6.11624908 6.77746677 C6.99798747 9.99266147 7.25533701 12.61169927 7.26501465 15.93553162 C7.27328781 17.10008377 7.28156097 18.26463593 7.29008484 19.46447754 C7.28910294 20.7284436 7.28812103 21.99240967 7.28710938 23.29467773 C7.2931395 24.65052194 7.30006524 26.00636241 7.30781555 27.36219788 C7.32267196 30.2759199 7.33144582 33.18957378 7.33552551 36.10333061 C7.34226807 40.72447847 7.36406069 45.345482 7.38806152 49.96656799 C7.43697272 59.79017801 7.46927074 69.61381887 7.5 79.4375 C7.53316193 90.01440794 7.56939715 100.59125919 7.62413073 111.16808087 C7.64726973 115.74679221 7.66116777 120.32540412 7.66762543 124.90416801 C7.6736351 127.77513292 7.68779229 130.6460191 7.70396996 133.51694298 C7.71248993 135.44986602 7.71143871 137.38282416 7.70991516 139.31576538 C7.79885624 152.10817752 9.2028843 164.22243172 13.5625 176.3125 C13.87896484 177.22966797 14.19542969 178.14683594 14.52148438 179.09179688 C16.06938041 183.62531463 16.06938041 183.62531463 18 188 C18.30859375 190.20703125 18.30859375 190.20703125 18.4375 192.8125 C18.49808594 193.66457031 18.55867188 194.51664063 18.62109375 195.39453125 C17.88567491 198.47959017 16.64906952 199.98122997 14.17521667 201.93852234 C9.23381331 204.3498634 3.40152683 203.661035 -1.97265625 203.59375 C-3.34215693 203.59203697 -4.71166089 203.59210654 -6.0811615 203.59387207 C-8.94350801 203.59222316 -11.8050672 203.5736045 -14.66723633 203.54199219 C-18.32805114 203.5022771 -21.98783812 203.4979537 -25.64882755 203.50545502 C-28.47396692 203.50853044 -31.29887707 203.49638472 -34.12396049 203.47932434 C-36.12746236 203.46891979 -38.13100788 203.46844733 -40.13453674 203.46813965 C-41.35607956 203.45222778 -42.57762238 203.43631592 -43.83618164 203.41992188 C-44.90840469 203.41150269 -45.98062775 203.4030835 -47.08534241 203.39440918 C-50.43534196 202.94108987 -52.29717302 202.0047156 -55 200 C-57.72424872 195.91362692 -57.74050694 192.71519374 -57 188 C-55.88304158 184.67026592 -54.65605464 181.42572378 -53.35668945 178.1652832 C-48.77356478 166.57666065 -46.90459528 154.68823519 -46.75952148 142.2800293 C-46.74002693 141.03193985 -46.74002693 141.03193985 -46.72013855 139.75863647 C-46.59401603 131.11640443 -46.53682209 122.47326585 -46.48510742 113.83032227 C-46.45833827 109.7399309 -46.4095492 105.65070088 -46.34155273 101.56079102 C-46.25928893 96.59769836 -46.21687873 91.63571341 -46.20204353 86.67197609 C-46.18985957 84.79135966 -46.16397577 82.91077613 -46.12359428 81.03055382 C-45.87991966 69.09153366 -46.65102981 62.19040171 -55 53 C-56.35847028 48.92458917 -56.51340209 45.26123736 -56 41 C-51.93129932 32.86259863 -44.05262559 27.11818548 -37.09765625 21.53125 C-34.23598343 19.21743874 -31.46208931 16.81128815 -28.68896484 14.39257812 C-10.49515333 -1.45538259 -10.49515333 -1.45538259 0 0 Z " fill="#FFFFFF" transform="translate(1486,136)"/>
<path d="M0 0 C10.39983184 6.34090466 16.51920931 15.16046453 19.859375 26.69921875 C21.28081774 38.63933775 19.47652196 49.44796414 12.0546875 59.13671875 C5.06576126 67.25663306 -3.05868496 71.63234971 -13.80859375 72.48046875 C-24.0128121 72.91392227 -32.99100572 69.8449469 -40.828125 63.32421875 C-48.393366 56.13048512 -51.91514809 47.65745739 -52.828125 37.32421875 C-53.07744696 26.86654749 -50.25152417 17.16986406 -43.640625 8.94921875 C-32.64647274 -2.5730369 -14.67393938 -7.01690054 0 0 Z " fill="#FFFFFF" transform="translate(1482.828125,37.67578125)"/>
<path d="M0 0 C6.66080189 4.73941673 10.33978671 9.97563577 12 18 C12.65883186 26.16951511 11.04557045 32.87271695 5.8125 39.3125 C0.28336461 45.07153707 -4.41766068 47.20123998 -12.4375 47.5 C-20.15697679 47.22302803 -26.020103 45.47149142 -31.375 39.75 C-36.72754711 32.73221601 -37.9061281 25.71669706 -37 17 C-35.70851907 10.44951567 -32.05418862 5.28610367 -27 1 C-18.25673427 -4.14479769 -9.01083668 -4.76259867 0 0 Z " fill="#FFFFFF" transform="translate(1894,296)"/>
<path d="M0 0 C1.65 0 3.3 0 5 0 C10.65605114 10.71322627 15.30532374 21.84191174 20 33 C25.15918359 22.06897977 30.1226734 11.05949643 35 0 C36.98 0 38.96 0 41 0 C41 13.86 41 27.72 41 42 C39.02 42 37.04 42 35 42 C34.505 29.13 34.505 29.13 34 16 C30.37 24.58 26.74 33.16 23 42 C21.35 42 19.7 42 18 42 C16.93413396 39.75154483 15.87232369 37.5013025 14.8125 35.25 C14.52052734 34.63511719 14.22855469 34.02023438 13.92773438 33.38671875 C11.07935173 27.32242021 8.5864076 21.20737824 6 15 C5.67 23.91 5.34 32.82 5 42 C3.35 42 1.7 42 0 42 C0 28.14 0 14.28 0 0 Z " fill="#FFFFFF" transform="translate(1869,60)"/>
<path d="M0 0 C8.91 0 17.82 0 27 0 C27 1.32 27 2.64 27 4 C23.37 4 19.74 4 16 4 C16 16.54 16 29.08 16 42 C14.35 42 12.7 42 11 42 C11 29.46 11 16.92 11 4 C7.37 4 3.74 4 0 4 C0 2.68 0 1.36 0 0 Z " fill="#FFFFFF" transform="translate(1836,60)"/>
</svg>
